<svg preserveAspectRatio="xMidYMid meet" data-bbox="40.7 0 408.6 490" height="512" width="512" viewBox="40.7 0 408.6 490" xmlns="http://www.w3.org/2000/svg" data-type="color" role="presentation" aria-hidden="true"><defs><style>#comp-jr6eyjqx svg [data-color="1"] {fill: #FFFFFF;}</style></defs>
    <g>
        <path d="M190.4 269v-77.1c0-3.3-1.7-6.4-4.4-8.2-7.3-4.9-11.7-13-11.7-21.8v-80c0-34.3 27.9-62.1 62.1-62.1h17.2c34.3 0 62.1 27.9 62.1 62.1v80c0 8.8-4.4 16.9-11.7 21.8-2.8 1.8-4.4 4.9-4.4 8.2V269c0 5.2 2.9 9.8 7.5 12.1 10.1 4.9 63.1 31.7 111.9 71.8 6.7 5.5 10.5 13.6 10.5 22.3V430c0 5.5 4.4 9.9 9.9 9.9s9.9-4.4 9.9-9.9v-54.8c0-14.6-6.5-28.3-17.7-37.6-46.3-38-96.1-64.4-112.2-72.5v-68.3c10.2-8.7 16.1-21.4 16.1-34.9v-80c0-45.2-36.8-81.9-81.9-81.9h-17.2c-45.2 0-81.9 36.8-81.9 81.9v80c0 13.5 5.9 26.2 16.1 34.9v68.3c-16.1 8.1-65.9 34.5-112.2 72.5-11.3 9.2-17.7 22.9-17.7 37.6V430c0 5.5 4.4 9.9 9.9 9.9s9.9-4.4 9.9-9.9v-54.8c0-8.7 3.8-16.8 10.5-22.3 48.8-40.1 101.8-66.8 111.9-71.8 4.6-2.3 7.5-6.9 7.5-12.1z" fill="#000" data-color="1"></path>
        <path d="M302.7 382.2l-83.9 83.9-31.5-31.5c-3.9-3.9-10.1-3.9-14 0s-3.9 10.1 0 14l38.5 38.5c1.9 1.9 4.5 2.9 7 2.9s5.1-1 7-2.9l90.9-90.9c3.9-3.9 3.9-10.1 0-14-3.9-3.8-10.1-3.8-14 0z" fill="#fbb901" data-color="2"></path>
    </g>
</svg>