<?xml version="1.0" encoding="UTF-8" standalone="no"?><!DOCTYPE svg PUBLIC "-//W3C//DTD SVG 1.1//EN" "http://www.w3.org/Graphics/SVG/1.1/DTD/svg11.dtd"><svg width="100%" height="100%" viewBox="0 0 17 17" version="1.1" xmlns="http://www.w3.org/2000/svg" xmlns:xlink="http://www.w3.org/1999/xlink" xml:space="preserve" xmlns:serif="http://www.serif.com/" style="fill-rule:evenodd;clip-rule:evenodd;stroke-linejoin:round;stroke-miterlimit:2;"><g id="en"><path d="M8.001,0l-8.001,8.001l8.001,8l8,-8l-8,-8.001Z" style="fill:#012169;fill-rule:nonzero;"/><path d="M12.142,4.141l2.385,2.385l-2.949,1.475l2.949,1.474l-2.385,2.385l-4.141,-2.07l-4.142,2.07l-2.385,-2.385l2.949,-1.474l-2.949,-1.475l2.385,-2.385l4.142,2.071l4.141,-2.071Z" style="fill:#fff;"/><path d="M12.539,4.539l1.59,1.59l-3.743,1.872l3.743,1.871l-1.59,1.59l-4.538,-2.269l-4.539,2.269l-1.59,-1.59l3.743,-1.871l-3.743,-1.872l1.59,-1.59l4.539,2.269l4.538,-2.269Z" style="fill:#c8102e;"/><path d="M10.667,2.667l0,2.667l2.667,-0l2.667,2.667l-2.667,2.666l-2.667,0l0,2.667l-2.666,2.667c-0,0 -2.667,-2.667 -2.667,-2.667l-0,-2.667l-2.667,0l-2.667,-2.666l2.667,-2.667l2.667,-0l-0,-2.667l2.667,-2.667l2.666,2.667Z" style="fill:#fff;"/><path d="M9.601,1.6l-0,4.8l4.8,0l1.6,1.601l-1.6,1.6l-4.8,-0l-0,4.8l-1.6,1.6c-0,0 -1.601,-1.6 -1.601,-1.6l0,-4.8l-4.8,-0l-1.6,-1.6l1.6,-1.601l4.8,0l0,-4.8l1.601,-1.6l1.6,1.6Z" style="fill:#c8102e;"/></g></svg>