<svg preserveAspectRatio="xMidYMid meet" data-bbox="0 2.2 490 485.6" height="512" width="512" viewBox="0 2.2 490 485.6" xmlns="http://www.w3.org/2000/svg" data-type="color" role="presentation" aria-hidden="true"><defs><style>#comp-jqp6rzwd svg [data-color="1"] {fill: #FFFFFF;}</style></defs>
    <g>
        <path d="M117 220H9.9c-5.5 0-9.9 4.4-9.9 9.9v248c0 5.5 4.4 9.9 9.9 9.9H117c5.5 0 9.9-4.4 9.9-9.9v-248c0-5.5-4.4-9.9-9.9-9.9zm-9.9 248H19.8V239.8h87.4V468h-.1z" fill="#000000" data-color="1"></path>
        <path d="M298.6 2.2H191.4c-5.5 0-9.9 4.4-9.9 9.9v465.7c0 5.5 4.4 9.9 9.9 9.9h107.2c5.5 0 9.9-4.4 9.9-9.9V12.1c0-5.4-4.4-9.9-9.9-9.9zM288.7 468h-87.4V22h87.4v446z" fill="#fbb901" data-color="2"></path>
        <path d="M480.1 487.8c5.5 0 9.9-4.4 9.9-9.9V162.6c0-5.5-4.4-9.9-9.9-9.9H373c-5.5 0-9.9 4.4-9.9 9.9v315.2c0 5.5 4.4 9.9 9.9 9.9h107.1v.1zm-97.2-315.3h87.4V468h-87.4V172.5z" fill="#000000" data-color="1"></path>
    </g>
</svg>