<?xml version="1.0" encoding="UTF-8" standalone="no"?><!DOCTYPE svg PUBLIC "-//W3C//DTD SVG 1.1//EN" "http://www.w3.org/Graphics/SVG/1.1/DTD/svg11.dtd"><svg width="100%" height="100%" viewBox="0 0 186 92" version="1.1" xmlns="http://www.w3.org/2000/svg" xmlns:xlink="http://www.w3.org/1999/xlink" xml:space="preserve" xmlns:serif="http://www.serif.com/" style="fill-rule:evenodd;clip-rule:evenodd;stroke-miterlimit:22.9256;"><g id="Warstwa-1" serif:id="Warstwa 1"><path d="M99.819,86.759l-0,-3.037c-0,-0.974 -0.721,-1.661 -1.783,-1.661c-1.06,-0 -1.793,0.717 -1.793,1.693l0,3.005l-0.552,-0l-0,-3.005c-0,-0.976 -0.735,-1.683 -1.795,-1.683c-1.06,-0 -1.783,0.707 -1.783,1.683l-0,3.005l-0.553,-0l0,-5.067l0.519,-0l0.012,0.84c0.384,-0.665 1.094,-0.943 1.817,-0.943c0.845,0 1.737,0.349 2.064,1.252c0.338,-0.831 1.206,-1.252 2.064,-1.252c1.365,0 2.336,0.873 2.336,2.133l-0,3.037l-0.553,-0Z" style="fill:#1a1a18;fill-rule:nonzero;stroke:#1a1a18;stroke-width:0.22px;"/><path d="M107.062,84.02c-0.012,-1.252 -0.913,-1.948 -2.256,-1.948c-1.151,0 -2.143,0.708 -2.268,1.948l4.524,0Zm-5.089,0.206c0,-1.519 1.264,-2.615 2.833,-2.615c1.569,-0.001 2.967,0.871 2.753,2.851l-5.021,-0c0.113,1.19 1.117,1.877 2.268,1.877c0.733,0 1.59,-0.268 2.009,-0.77l0.394,0.286c-0.541,0.647 -1.512,0.976 -2.403,0.976c-1.569,-0 -2.833,-0.996 -2.833,-2.605Z" style="fill:#1a1a18;fill-rule:nonzero;stroke:#1a1a18;stroke-width:0.22px;"/><path d="M109.59,84.226c-0,1.405 1.026,2.123 2.278,2.123c1.309,-0 2.279,-0.872 2.279,-2.134c0,-1.262 -0.992,-2.123 -2.279,-2.123c-1.252,0 -2.278,0.708 -2.278,2.134Zm5.11,-4.646l0,7.178l-0.542,0l-0,-1.117c-0.462,0.769 -1.375,1.2 -2.324,1.2c-1.557,-0 -2.785,-0.934 -2.785,-2.615c-0,-1.672 1.24,-2.616 2.797,-2.616c0.959,0 1.862,0.369 2.312,1.19l-0,-3.22l0.542,-0Z" style="fill:#1a1a18;fill-rule:nonzero;stroke:#1a1a18;stroke-width:0.22px;"/><path d="M116.652,86.759l0.553,-0l-0,-5.088l-0.553,0l-0,5.088Zm0.733,-6.719c-0,0.534 -0.892,0.534 -0.892,-0c0,-0.532 0.892,-0.532 0.892,-0Z" style="fill:#1a1a18;fill-rule:nonzero;stroke:#1a1a18;stroke-width:0.22px;"/><path d="M119.393,84.226c0,1.272 1.015,2.123 2.279,2.123c3.102,-0 3.102,-4.236 -0,-4.236c-1.264,-0 -2.279,0.84 -2.279,2.113Zm5.111,-2.533l0,5.065l-0.552,0l-0,-1.076c-0.543,0.79 -1.377,1.159 -2.28,1.159c-1.556,0 -2.831,-1.067 -2.831,-2.615c-0,-1.549 1.275,-2.595 2.831,-2.595c0.903,-0 1.816,0.379 2.28,1.169l-0,-1.107l0.552,-0Z" style="fill:#1a1a18;fill-rule:nonzero;stroke:#1a1a18;stroke-width:0.22px;"/><path d="M130.123,84.072c-0,1.046 0.79,1.948 2.064,1.948c1.151,-0 2.088,-0.902 2.088,-1.948c-0,-1.283 -0.937,-1.97 -2.088,-1.97c-1.139,-0 -2.064,0.647 -2.064,1.97Zm4.185,-2.585l0.361,0.288l-0.541,0.574c0.394,0.39 0.688,0.902 0.688,1.723c-0,0.881 -0.575,1.774 -1.5,2.153c0.981,0.319 1.522,0.944 1.522,1.815c-0,1.365 -1.173,2.02 -2.651,2.02c-1.478,0 -2.639,-0.738 -2.639,-2.02l0.553,0c0,1.036 0.969,1.528 2.086,1.528c1.117,0 2.11,-0.451 2.11,-1.528c-0,-1.087 -1.072,-1.516 -2.11,-1.516c-1.612,-0 -2.617,-1.1 -2.617,-2.452c-0,-1.579 1.173,-2.473 2.617,-2.473c0.565,0 1.151,0.186 1.581,0.462l0.54,-0.574Z" style="fill:#1a1a18;fill-rule:nonzero;stroke:#1a1a18;stroke-width:0.22px;"/><path d="M136.835,81.692l0.022,0.902c0.351,-0.686 1.141,-0.954 1.852,-0.954c0.416,-0.01 0.822,0.093 1.195,0.298l-0.248,0.411c-0.293,-0.165 -0.62,-0.237 -0.947,-0.237c-1.04,0.012 -1.84,0.77 -1.84,1.693l-0,2.954l-0.553,0l0,-5.067l0.519,0Z" style="fill:#1a1a18;fill-rule:nonzero;stroke:#1a1a18;stroke-width:0.22px;"/><path d="M145.962,84.236c-0,-1.313 -1.026,-2.164 -2.29,-2.164c-1.264,-0 -2.29,0.851 -2.29,2.164c0,1.312 1.026,2.102 2.29,2.102c1.264,0 2.29,-0.79 2.29,-2.102Zm-5.121,-0c0,-1.61 1.262,-2.636 2.831,-2.636c1.569,-0 2.833,1.026 2.833,2.636c-0,1.61 -1.264,2.594 -2.833,2.594c-1.569,0 -2.831,-0.984 -2.831,-2.594Z" style="fill:#1a1a18;fill-rule:nonzero;stroke:#1a1a18;stroke-width:0.22px;"/><path d="M152.63,86.759l0,-0.914c-0.428,0.698 -1.206,0.986 -1.985,0.996c-1.489,0 -2.516,-0.83 -2.516,-2.236l0,-2.923l0.553,-0l0,2.913c0,1.148 0.778,1.764 1.985,1.754c1.151,-0.011 1.951,-0.8 1.951,-1.847l0,-2.82l0.553,-0l0,5.077l-0.541,-0Z" style="fill:#1a1a18;fill-rule:nonzero;stroke:#1a1a18;stroke-width:0.22px;"/><path d="M160.099,84.226c0,-1.426 -1.016,-2.124 -2.278,-2.124c-1.298,0 -2.257,0.893 -2.257,2.134c0,1.242 0.981,2.133 2.257,2.133c1.262,0 2.278,-0.718 2.278,-2.143Zm-5.111,4.645l-0,-7.178l0.541,-0l0,1.2c0.441,-0.771 1.333,-1.273 2.415,-1.273c1.511,0.053 2.708,0.974 2.708,2.606c-0,1.702 -1.264,2.625 -2.831,2.625c-0.949,-0 -1.828,-0.42 -2.302,-1.262l0,3.282l-0.531,0Z" style="fill:#1a1a18;fill-rule:nonzero;stroke:#1a1a18;stroke-width:0.22px;"/><path d="M65.371,44.234l-10.521,-10.667l-11.109,11.253l43.908,-0l-11.43,-11.431l-10.848,10.845Z" style="fill:#004461;fill-rule:nonzero;"/><path d="M66.21,1l10.675,10.676l-11.19,11.19l-10.675,-10.676l11.19,-11.19Z" style="fill:#fbb900;"/><path d="M73.979,71.327l4.087,-0c1.543,-0 3.525,-0.335 3.525,-2.105c-0.017,-1.738 -1.753,-2.36 -3.402,-2.36l-4.21,-0l0,4.465Zm0,-5.278l4.21,0c1.473,0 3.016,-0.414 3.016,-2.01c0,-1.626 -1.613,-2.312 -3.139,-2.312l-4.087,0l0,4.322Zm8.121,-2.01c0,1.149 -0.772,2.041 -1.999,2.393c1.543,0.383 2.42,1.515 2.42,2.806c-0,2.296 -2.35,2.919 -4.455,2.919l-5.033,-0l-0,-11.163l5.033,-0c2.069,-0 4.034,0.924 4.034,3.045Z" style="fill:#006f9d;fill-rule:nonzero;stroke:#006f9d;stroke-width:0.22px;"/><path d="M94.746,60.994l-0,6.936c-0,5.837 -9.401,5.852 -9.401,-0l0,-6.936l0.93,-0l-0,6.936c-0,4.8 7.541,4.784 7.541,-0l0,-6.936l0.93,-0Z" style="fill:#006f9d;fill-rule:nonzero;stroke:#006f9d;stroke-width:0.22px;"/><path d="M98.815,66.144l7.191,0l0,0.782l-7.191,-0l-0,4.401l7.752,0l-0,0.829l-8.682,-0l0,-11.162l8.472,0l-0,0.813l-7.542,-0l-0,4.337Z" style="fill:#006f9d;fill-rule:nonzero;stroke:#006f9d;stroke-width:0.22px;"/><path d="M110.005,60.994l8.261,9.232l-0,-9.232l0.929,-0l0,11.163l-0.367,-0l-8.28,-9.219l0,9.219l-0.946,-0l-0,-11.163l0.403,-0Z" style="fill:#006f9d;fill-rule:nonzero;stroke:#006f9d;stroke-width:0.22px;"/><path d="M130.544,68.616l-3.298,-6.793l-3.298,6.793l6.596,0Zm1.718,3.541l-1.349,-2.744l-7.332,0l-1.334,2.744l-1.017,-0l5.507,-11.163l1.035,-0l5.508,11.163l-1.018,-0Z" style="fill:#006f9d;fill-rule:nonzero;stroke:#006f9d;stroke-width:0.22px;"/><path d="M143.593,60.994l-5.052,11.194l-1.017,-0l-5.052,-11.194l1.019,-0l4.543,10.205l4.541,-10.205l1.018,-0Z" style="fill:#1a1a18;fill-rule:nonzero;stroke:#1a1a18;stroke-width:0.22px;"/><rect x="145.802" y="60.994" width="0.929" height="11.163" style="fill:#1a1a18;stroke:#1a1a18;stroke-width:0.22px;"/><path d="M158.308,63.146c-0.894,-1.307 -2.332,-1.499 -3.718,-1.515c-1.439,0 -3.719,0.478 -3.719,2.264c-0,1.42 1.684,1.755 3.753,2.105c2.368,0.416 4.823,0.797 4.823,3.206c-0.016,2.519 -2.805,3.126 -4.857,3.126c-1.912,0 -4.087,-0.718 -5.034,-2.424l0.841,-0.383c0.755,1.354 2.684,2.026 4.193,2.026c1.508,-0 3.911,-0.383 3.911,-2.361c0.017,-1.675 -2.018,-2.041 -4.034,-2.393c-2.245,-0.398 -4.543,-0.813 -4.543,-2.869c-0.053,-2.36 2.648,-3.094 4.666,-3.094c1.753,0 3.279,0.256 4.49,1.898l-0.772,0.414Z" style="fill:#1a1a18;fill-rule:nonzero;stroke:#1a1a18;stroke-width:0.22px;"/><path d="M165.5,61.775l-4.438,0l0,-0.766l9.823,0l-0,0.766l-4.439,0l-0,10.382l-0.946,-0l-0,-10.382Z" style="fill:#1a1a18;fill-rule:nonzero;stroke:#1a1a18;stroke-width:0.22px;"/><path d="M181.284,68.616l-3.297,-6.793l-3.298,6.793l6.595,0Zm1.719,3.541l-1.35,-2.744l-7.331,0l-1.335,2.744l-1.016,-0l5.506,-11.163l1.036,-0l5.508,11.163l-1.018,-0Z" style="fill:#1a1a18;fill-rule:nonzero;stroke:#1a1a18;stroke-width:0.22px;"/><path d="M87.356,22.199l-11.189,11.19l11.431,11.431l22.379,-0l-22.621,-22.621Z" style="fill:#0eb9ee;fill-rule:nonzero;"/><path d="M76.333,33.671l11.213,-11.282l-10.661,-10.713l-11.163,11.155l10.611,10.84Z" style="fill:#7ac5ee;fill-rule:nonzero;"/><path d="M33.651,12.513l-32.612,32.307l21.351,-0l21.784,-21.784l-10.523,-10.523Z" style="fill:#006f9d;fill-rule:nonzero;"/><path d="M54.939,12.077l-32.548,32.742l21.35,0l21.914,-22.012l-10.716,-10.73Z" style="fill:#009ee3;fill-rule:nonzero;"/><path d="M33.612,77.087l10.523,-10.523l-21.784,-21.783l-21.351,0l32.612,32.306Z" style="fill:#6eb1d0;fill-rule:nonzero;"/><path d="M44.099,66.653l10.523,-10.523l-10.852,-11.333l-21.473,-0l21.802,21.856Z" style="fill:#e3eff7;fill-rule:nonzero;"/><path d="M55.02,12.19l-10.846,10.846l-10.523,-10.523l10.847,-10.846l10.522,10.523Z" style="fill:#0088c1;"/><path d="M65.371,44.234l11.035,-10.564l-10.759,-10.945l-10.895,10.842l10.619,10.667Z" style="fill:#00618a;fill-rule:nonzero;"/></g></svg>