<?xml version="1.0" encoding="UTF-8" standalone="no"?><!DOCTYPE svg PUBLIC "-//W3C//DTD SVG 1.1//EN" "http://www.w3.org/Graphics/SVG/1.1/DTD/svg11.dtd"><svg width="100%" height="100%" viewBox="0 0 40 40" version="1.1" xmlns="http://www.w3.org/2000/svg" xmlns:xlink="http://www.w3.org/1999/xlink" xml:space="preserve" xmlns:serif="http://www.serif.com/" style="fill-rule:evenodd;clip-rule:evenodd;stroke-linejoin:round;stroke-miterlimit:2;"><g><path d="M39.949,19.975l-19.974,-19.975l-19.975,19.975l19.975,19.974l19.974,-19.974Z" style="fill:#fbb901;"/><path d="M26.061,19.519l-13.82,-0c-0.415,-0 -0.751,0.337 -0.751,0.751c-0,0.415 0.336,0.752 0.751,0.752l13.579,-0l-3.853,3.63c-0.302,0.284 -0.316,0.76 -0.032,1.062c0.285,0.302 0.761,0.316 1.063,0.032l5.315,-5.007c0.148,-0.139 0.233,-0.333 0.236,-0.536c0.003,-0.203 -0.077,-0.399 -0.22,-0.543l-5.442,-5.441c-0.293,-0.293 -0.769,-0.293 -1.063,0c-0.293,0.293 -0.293,0.77 0,1.063l4.237,4.237Z" style="fill:#fff;"/></g></svg>