<svg preserveAspectRatio="xMidYMid meet" data-bbox="0 0 496 496" width="512" viewBox="0 0 496 496" height="512" xmlns="http://www.w3.org/2000/svg" data-type="color" role="presentation" aria-hidden="true" aria-labelledby="svgcid-e1v2mmg6rft"><title id="svgcid-e1v2mmg6rft"></title>
    <g>
        <path d="M104 48h32v16h-32zm0 0" fill="#ffffff" data-color="1"></path>
        <path d="M168 48h64v16h-64zm0 0" fill="#ffffff" data-color="1"></path>
        <path d="M264 48h32v16h-32zm0 0" fill="#ffffff" data-color="1"></path>
        <path d="M456 280h-8c0-13.23-10.77-24-24-24-6.168 0-11.742 2.406-16 6.238a23.784 23.784 0 00-8-4.765V72c0-13.23-10.77-24-24-24h-48v16h48c4.406 0 8 3.594 8 8v40H16V72c0-4.406 3.594-8 8-8h48V48H24C10.77 48 0 58.77 0 72v288c0 13.23 10.77 24 24 24h248v6.313a39.91 39.91 0 006.719 22.183L288 426.414V440h16v-18.426l-11.969-17.949A23.917 23.917 0 01288 390.312V360h83.121c-1.969 6.297-3.121 12.922-3.121 19.777V400h16v-20.223c0-18.457 10.008-35.043 26.145-43.777H416v-56c0-4.406 3.594-8 8-8s8 3.594 8 8v88.45a24.07 24.07 0 01-2.535 10.734l-9.242 18.488A40.215 40.215 0 00416 415.55V440h16v-24.45c0-3.702.871-7.413 2.535-10.734l9.242-18.488A40.215 40.215 0 00448 368.45V360h8c22.055 0 40-17.945 40-40s-17.945-40-40-40zm-64 40c-4.406 0-8-3.594-8-8v-32c0-4.406 3.594-8 8-8s8 3.594 8 8v40zm-120 48H24c-4.406 0-8-3.594-8-8V128h368v129.473a23.912 23.912 0 00-8 4.765 23.784 23.784 0 00-8-4.765V144H32v139.313L100.688 352h132.886l12 8H272zm48-88c0-4.406 3.594-8 8-8s8 3.594 8 8v32c0 4.406-3.594 8-8 8s-8-3.594-8-8zm8-24c-6.168 0-11.742 2.406-16 6.238-4.258-3.84-9.832-6.238-16-6.238-13.23 0-24 10.77-24 24h-26.426l-60 40 24 16H112v-64H48V160h304v97.473a23.912 23.912 0 00-8 4.765c-4.258-3.832-9.832-6.238-16-6.238zm-24 56c0 4.406-3.594 8-8 8s-8-3.594-8-8v-32c0-4.406 3.594-8 8-8s8 3.594 8 8zm-89.574 8L240 302.945v34.102zM256 296h16v16h-16zM96 324.688L59.312 288H96zM352 280c0-4.406 3.594-8 8-8s8 3.594 8 8v32c0 4.406-3.594 8-8 8s-8-3.594-8-8zm26.64 64H256v-16h22.238c4.395 4.871 10.7 8 17.762 8 6.168 0 11.742-2.406 16-6.238 4.258 3.84 9.832 6.238 16 6.238s11.742-2.406 16-6.238c4.258 3.84 9.832 6.238 16 6.238s11.742-2.406 16-6.238a23.91 23.91 0 009.586 5.261c-2.594 2.786-4.883 5.801-6.945 8.977zm77.36 0h-8v-48h8c13.23 0 24 10.77 24 24s-10.77 24-24 24zm0 0" fill="#ffffff" data-color="1"></path>
        <path d="M320 176h16v16h-16zm0 0" fill="#ffffff" data-color="1"></path>
        <path d="M288 176h16v16h-16zm0 0" fill="#ffffff" data-color="1"></path>
        <path d="M256 176h16v16h-16zm0 0" fill="#ffffff" data-color="1"></path>
        <path d="M64 176h16v16H64zm0 0" fill="#ffffff" data-color="1"></path>
        <path d="M96 176h16v16H96zm0 0" fill="#ffffff" data-color="1"></path>
        <path d="M128 176h16v16h-16zm0 0" fill="#ffffff" data-color="1"></path>
        <path d="M96 96H80c-8.824 0-16-7.176-16-16V16c0-8.824 7.176-16 16-16h16c8.824 0 16 7.176 16 16v64c0 8.824-7.176 16-16 16zm0 0" fill="#fbb901" data-color="2"></path>
        <path d="M160 96h-16c-8.824 0-16-7.176-16-16V16c0-8.824 7.176-16 16-16h16c8.824 0 16 7.176 16 16v64c0 8.824-7.176 16-16 16zm0 0" fill="#fbb901" data-color="2"></path>
        <path d="M256 96h-16c-8.824 0-16-7.176-16-16V16c0-8.824 7.176-16 16-16h16c8.824 0 16 7.176 16 16v64c0 8.824-7.176 16-16 16zm0 0" fill="#fbb901" data-color="2"></path>
        <path d="M320 96h-16c-8.824 0-16-7.176-16-16V16c0-8.824 7.176-16 16-16h16c8.824 0 16 7.176 16 16v64c0 8.824-7.176 16-16 16zm0 0" fill="#fbb901" data-color="2"></path>
        <path d="M448 496H272v-64h176zm0 0" fill="#fbb901" data-color="2"></path>
    </g>
</svg>