<svg preserveAspectRatio="xMidYMid meet" data-bbox="0 0 496 496" width="512" viewBox="0 0 496 496" height="512" xmlns="http://www.w3.org/2000/svg" data-type="color" role="presentation" aria-hidden="true" aria-labelledby="svgcid--ipjvii-py0s5p"><title id="svgcid--ipjvii-py0s5p"></title>
    <g>
        <path d="M56 344h64v32H56zm0 0" fill="#fbb901" data-color="1"></path>
        <path d="M56 456h64v32H56zm0 0" fill="#fbb901" data-color="1"></path>
        <path d="M216 456h64v32h-64zm0 0" fill="#fbb901" data-color="1"></path>
        <path d="M216 344h64v32h-64zm0 0" fill="#fbb901" data-color="1"></path>
        <path d="M136 200h64v32h-64zm0 0" fill="#fbb901" data-color="1"></path>
        <path d="M136 312h64v32h-64zm0 0" fill="#fbb901" data-color="1"></path>
        <path d="M19.879 125.367C37.512 132.426 56.089 136 75.079 136H124.8v-16H75.078a131.97 131.97 0 01-49.254-9.488C19.855 108.129 16 102.434 16 96s3.855-12.129 9.832-14.512A131.937 131.937 0 0175.078 72H288v5.527C269.32 104.168 238.96 120 206.312 120H184v16h22.313c38.808 0 74.824-19.281 96.343-51.559L304 82.426V56h-16V0h-37.273l-24 56h-37.782l24-48h-39.37l-72 48H75.077c-18.988 0-37.566 3.574-55.2 10.633C7.809 71.465 0 82.993 0 96s7.809 24.535 19.879 29.367zM261.273 16H272v40h-27.871zm-82.847 8h8.629l-16 32h-40.63zm0 0" fill="#ffffff" data-color="2"></path>
        <path d="M312 336h-57.473c.899-2.512 1.473-5.184 1.473-8V216c0-13.23-10.77-24-24-24H104c-13.23 0-24 10.77-24 24v112c0 2.816.574 5.488 1.473 8H24c-13.23 0-24 10.77-24 24v112c0 13.23 10.77 24 24 24h128c6.168 0 11.742-2.406 16-6.238 4.258 3.84 9.832 6.238 16 6.238h128c13.23 0 24-10.77 24-24V360c0-13.23-10.77-24-24-24zm-216-8V216c0-4.406 3.594-8 8-8h128c4.406 0 8 3.594 8 8v112c0 4.406-3.594 8-8 8H104c-4.406 0-8-3.594-8-8zm56 152H24c-4.406 0-8-3.594-8-8V360c0-4.406 3.594-8 8-8h128c4.406 0 8 3.594 8 8v112c0 4.406-3.594 8-8 8zm168-8c0 4.406-3.594 8-8 8H184c-4.406 0-8-3.594-8-8V360c0-4.406 3.594-8 8-8h128c4.406 0 8 3.594 8 8zm0 0" fill="#ffffff" data-color="2"></path>
        <path d="M465.703 178.176l-32.625-8.153C451.824 160.625 464 141.305 464 120v-13.992c0-31.07-24.352-57.086-54.29-57.985-15.237-.543-29.75 5.145-40.71 15.786S352 88.719 352 104v16c0 21.305 12.176 40.625 30.922 50.023l-32.625 8.153A39.953 39.953 0 00320 216.984V296c0 13.23 10.77 24 24 24h8v176h112V320h8c13.23 0 24-10.77 24-24v-79.016a39.953 39.953 0 00-30.297-38.808zM368 120v-16c0-10.91 4.313-21.105 12.145-28.703 7.832-7.602 18.054-11.563 29.093-11.274C430.61 64.664 448 83.503 448 106.008V120c0 16.879-10.719 32.016-26.672 37.664L416 159.56V176c0 4.406-3.594 8-8 8s-8-3.594-8-8v-16.441l-5.328-1.887C378.719 152.016 368 136.879 368 120zm80 360h-32V312h-16v168h-32V296h80zm32-184c0 4.406-3.594 8-8 8h-8v-80h-16v56h-80v-56h-16v80h-8c-4.406 0-8-3.594-8-8v-79.016c0-11.03 7.48-20.609 18.176-23.289l31.922-7.976C389.84 194.113 398.23 200 408 200s18.16-5.887 21.902-14.281l31.922 7.976A23.983 23.983 0 01480 216.985zm0 0" fill="#ffffff" data-color="2"></path>
        <path fill="#fbb901" d="M212.137 176h-38.801L104 124v-20h77.273zm0 0" data-color="1"></path>
    </g>
</svg>