<svg preserveAspectRatio="xMidYMid meet" data-bbox="77.505 0 334.765 489.776" height="512" width="512" viewBox="77.505 0 334.765 489.776" xmlns="http://www.w3.org/2000/svg" data-type="color" role="presentation" aria-hidden="true"><defs><style>#comp-jqr5ofiy svg [data-color="2"] {fill: #FFFFFF;}</style></defs>
    <g>
        <path d="M92.88 357.077c-.1.5-.1 1-.1 1.5 0 .6 0 1.6-.1 2-4.1 13.7-.7 25 10.3 34.8 4.3 3.7 6.1 9.1 5.2 14.8-1.1 6.2-5.2 11.3-11.1 13.6-.1 0-.2.1-.3.1-10.6 4.5-16 11.9-16.7 22.5-.2 2.8-.7 5.9-1.1 9.1-.5 3.4-1 6.9-1.3 10.3-.7 6.9.7 12.6 4.3 16.9 3.6 4.3 9.1 6.7 16.2 7.1h287.3c3.7 0 8.4-.5 12.9-4.1 5.9-4.4 8.7-11.4 7.7-19.4-.5-4.1-1.1-8.1-1.8-12.1-.6-4-1.2-7.7-1.7-11.5 0-.2-.1-.5-.1-.7-2.3-11.2-9.5-15.6-15.3-17.4-6.1-1.7-10.6-7-11.9-13.6-.6-3.4-1.2-12.1 7.6-18.8 7.1-4.8 10.3-12 9.5-20.6-.5-6.7-1.5-13.4-2.5-19.8-1.7-11.6-9.3-18.3-21.1-18.3h-249c-18.2.5-24.3 5.7-26.9 23.6zm277-3.301c.1.3.2.8.3 1.4 1 6.3 1.9 12.3 2.4 18.5.2 1.7-.1 1.9-1 2.5-.2.1-.3.2-.5.3-12.3 9.3-18.1 23.7-15.3 38.4 2.6 14.1 12.6 25.2 25.8 29 .7.2 1 .3 1.4 1.9.5 3.9 1.1 7.9 1.7 11.7.6 4 1.2 7.7 1.7 11.5.1.5 0 .9 0 1.1H99.08c-.9-.1-1.4-.2-1.8-.3 0-.4 0-1 .1-2v-.3c.2-2.8.7-5.9 1.1-9.1.5-3.4 1-6.9 1.3-10.6.2-2.7.4-3.9 4.7-5.7 12.3-4.9 21-15.6 23.2-28.6 2.1-12.5-2.2-24.8-11.6-33-5.8-5.1-6.1-8.6-4.4-14.1.8-2.6.9-5.2.9-7.1.4-2.9.8-4.4 1.1-5.3 1-.1 2.8-.3 6.2-.3h248.9c.4.1.8.1 1.1.1z" fill="#fbb900" data-color="1"></path>
        <path d="M186.38 421.876h110.7c5.5 0 9.9-4.4 9.9-9.9s-4.4-9.9-9.9-9.9h-110.7c-5.5 0-9.9 4.4-9.9 9.9s4.5 9.9 9.9 9.9z" fill="#fbb900" data-color="1"></path>
        <path d="M121.68 202.377c-.6 10.5-.7 21-.7 31.1 0 6.6-.1 13.4-.3 20.2v32.1c0 13.8 10.8 24.6 24.6 24.6h137.5l60.9 1c13 0 23.1-9.9 23.1-22.6v-21.6c0-14.2-7.2-27.2-19.5-34.9-.1-.1-15.9-9.9-33.7-25.4-4.1-3.6-10.4-3.2-14 1-3.6 4.1-3.2 10.4 1 14 19.3 16.8 36.3 27.3 36.3 27.3 6.4 4 10.1 10.6 10.1 18.1v21.6c0 2.1-1.8 2.8-3.2 2.8l-60.9-1h-137.6c-2.9 0-4.8-1.9-4.8-4.8v-31.7c.2-6.9.2-13.8.3-20.5.1-10.3.1-20 .7-30.2 1.1-24.7 3.8-45.3 8.6-64.8 4.5-18.8 10.3-38.5 22.5-55.4 12-17.3 23.3-24 39-23.3 19.9.6 34.3-7.8 42.9-24.9 2.8-5.4 7.3-9.6 13.5-12.6-.1 16.6 7.5 30.8 22.6 42.3 16.4 12.7 32.7 25.5 49 38.2s32.6 25.5 49 38.2c2.8 2.2 3.9 3.9 4 4.7s-.5 2.6-2.6 5.3l-16 18.8c-6.7 7.3-12.2 8.3-20.7 3.7-.1 0-.2-.1-.3-.1-4.8-2.4-9.2-4.6-13.1-7.2-.1-.1-.2-.1-.2-.2-9.6-6-21-7.8-32.9-5.2-.1 0-.2.1-.3.1-11.3 2.9-21.5.5-32.1-7.5l-7.2-5.8c-4.3-3.4-10.5-2.7-13.9 1.5-3.4 4.3-2.7 10.5 1.5 13.9l7.3 5.9.2.2c15.4 11.7 31.9 15.4 48.9 11.1 6.7-1.4 12.7-.6 17.8 2.6 4.8 3.2 10 5.8 15 8.3 16.7 8.9 31.7 6.2 44.7-8 .1-.1.2-.2.2-.3l16.2-19.1c.1-.1.1-.2.2-.3 5.4-6.9 7.7-13.4 6.8-20.1-.8-6.6-4.6-12.4-11.5-17.9-16.4-12.7-32.7-25.5-49-38.2s-32.6-25.5-49.1-38.3c-12-9.1-16.5-19.5-14.3-32.6 0-.2.1-.4.1-.5.8-7.2-2.5-11.2-4.6-12.9-2.6-2.2-7.4-4.4-15-2.1-14.5 4.4-25.5 13-31.8 25.1-5.2 10.3-12.5 14.5-24.5 14.1-29-1.3-45.2 16.2-56 31.5-14.2 19.6-20.9 42.5-25.6 62.2-5.1 20.8-8 42.6-9.1 68.5z" fill="#000000" data-color="2"></path>
    </g>
</svg>