<svg preserveAspectRatio="xMidYMid meet" data-bbox="0 0 496 496" width="512" viewBox="0 0 496 496" height="512" xmlns="http://www.w3.org/2000/svg" data-type="color" role="presentation" aria-hidden="true" aria-labelledby="svgcid-2l7l26fjllq0"><title id="svgcid-2l7l26fjllq0"></title>
    <g>
        <path d="M416 424h-64v-40h64zm0 0" fill="#fbb901" data-color="1"></path>
        <path d="M416 208h-64v-40h64zm0 0" fill="#fbb901" data-color="1"></path>
        <path d="M416 336h-64v-80h64zm0 0" fill="#fbb901" data-color="1"></path>
        <path d="M80 400H32v-48h48zm0 0" fill="#fbb901" data-color="1"></path>
        <path d="M72 448h160v16H72zm0 0" fill="#ffffff" data-color="2"></path>
        <path d="M476.793 419.77c1.984-3.497 3.207-7.473 3.207-11.77v-96c0-6.168-2.406-11.742-6.238-16 3.84-4.258 6.238-9.832 6.238-16V40h-16v56h-48V40h-16v56h-48V40h-16v56h-48V40h-16v56h-48V40h-16v56h-48V40h-16v56H96V40H80v56H32V40H16v152c0 8.824 7.176 16 16 16h4.238L10.414 324.246C4.137 328.574 0 335.81 0 344v64c0 13.23 10.77 24 24 24h240v-8h8V160h16v248c0 13.23 10.77 24 24 24h152c4.414 0 8 3.586 8 8s-3.586 8-8 8H296v16h168c13.23 0 24-10.77 24-24 0-8.52-4.496-15.977-11.207-20.23zM464 280c0 4.414-3.586 8-8 8H312c-4.414 0-8-3.586-8-8v-96c0-4.406 3.586-8 8-8h144c4.414 0 8 3.594 8 8zm0-168v49.473c-2.512-.899-5.184-1.473-8-1.473h-40v-48zm-64 0v48h-48v-48zm-64 0v48h-24c-2.816 0-5.488.574-8 1.473V144h-16v-32zm-128 0v48h-48v-48zm-30.238 96l44 176h-1.395l-52.933-82.336 21.214-15.152-9.296-13.016-56 40 9.296 13.016 21.75-15.535L201.352 384h-83.106l-11.46-45.832C104.12 327.48 94.535 320 83.503 320H61.527l24.887-112zm60.476 176l-44-176h17.188l44.316 176zM144 112v48H96v-48zm-64 0v48H32v-48zm-48 72v-8h192v16H32zm38.023 24L45.137 320H27.762L52.64 208zM16 408v-64c0-4.414 3.586-8 8-8h59.504a8.014 8.014 0 017.77 6.055L105.753 400H256v16H24c-4.414 0-8-3.586-8-8zm240-264v175.473l-28.2-111.977c6.985-1.719 12.2-7.992 12.2-15.496v-16c0-8.824-7.176-16-16-16v-48h48v32zm56 272c-4.414 0-8-3.586-8-8v-96c0-4.414 3.586-8 8-8h144c4.414 0 8 3.586 8 8v96c0 4.414-3.586 8-8 8zm0 0" fill="#ffffff" data-color="2"></path>
        <path fill="#fbb901" d="M480 48H16C7.176 48 0 40.824 0 32V16C0 7.176 7.176 0 16 0h464c8.824 0 16 7.176 16 16v16c0 8.824-7.176 16-16 16zm0 0" data-color="1"></path>
        <path fill="#fbb901" d="M40 496c-22.055 0-40-17.945-40-40s17.945-40 40-40 40 17.945 40 40-17.945 40-40 40zm0 0" data-color="1"></path>
        <path d="M48 456a8 8 0 11-16 0 8 8 0 0116 0zm0 0" fill="#ffffff" data-color="2"></path>
        <path fill="#fbb901" d="M264 496c-22.055 0-40-17.945-40-40s17.945-40 40-40 40 17.945 40 40-17.945 40-40 40zm0 0" data-color="1"></path>
        <path d="M272 456a8 8 0 11-16 0 8 8 0 0116 0zm0 0" fill="#ffffff" data-color="2"></path>
    </g>
</svg>