<svg width="334" height="278" viewBox="0 0 334 278" version="1.1" xmlns="http://www.w3.org/2000/svg" xmlns:xlink="http://www.w3.org/1999/xlink" xml:space="preserve" xmlns:serif="http://www.serif.com/" style="fill-rule:evenodd;clip-rule:evenodd;stroke-linejoin:round;stroke-miterlimit:2;"><path d="M298.217,-0l35.135,35.135l-36.827,36.827l-35.135,-35.135l36.827,-36.827Z" style="fill:#fab800;"/><g><path d="M262.997,190.668l22.832,-22.974l-21.708,-21.814l-22.731,22.713l21.607,22.075Z" style="fill:#7fc3e8;fill-rule:nonzero;"/><path d="M34.744,259.951l-17.635,17.634l-17.109,-17.11l17.635,-17.634l17.109,17.11Z" style="fill:#0087c0;"/></g><g><path d="M176.765,195.173l-67.701,-0c-3.377,-0 -6.155,-2.778 -6.155,-6.155l-0,-30.773c-0,-1.688 1.389,-3.078 3.077,-3.078c1.688,0 3.078,1.39 3.078,3.078l-0,30.773l67.701,0c1.688,0 3.078,1.389 3.078,3.078c-0,1.688 -1.39,3.077 -3.078,3.077Z" style="fill-rule:nonzero;"/><path d="M105.986,136.703c-1.688,0 -3.077,-1.389 -3.077,-3.077l-0,-55.392c-0,-3.377 2.778,-6.155 6.155,-6.155l67.701,-0c1.688,-0 3.078,1.389 3.078,3.077c-0,1.689 -1.39,3.078 -3.078,3.078l-67.701,-0l-0,55.392c-0,1.688 -1.39,3.077 -3.078,3.077Z" style="fill-rule:nonzero;"/><path d="M149.069,65.924l-12.309,0c-1.688,0 -3.078,-1.389 -3.078,-3.077c0,-1.688 1.39,-3.077 3.078,-3.077l12.309,-0c1.688,-0 3.077,1.389 3.077,3.077c0,1.688 -1.389,3.077 -3.077,3.077Z" style="fill-rule:nonzero;"/><path d="M164.456,65.924l-3.078,0c-1.688,0 -3.077,-1.389 -3.077,-3.077c0,-1.688 1.389,-3.077 3.077,-3.077l3.078,-0c1.688,-0 3.077,1.389 3.077,3.077c0,1.688 -1.389,3.077 -3.077,3.077Z" style="fill-rule:nonzero;"/><path d="M124.45,65.924l-3.077,0c-1.688,0 -3.077,-1.389 -3.077,-3.077c-0,-1.688 1.389,-3.077 3.077,-3.077l3.077,-0c1.688,-0 3.078,1.389 3.078,3.077c-0,1.688 -1.39,3.077 -3.078,3.077Z" style="fill-rule:nonzero;"/><path d="M142.914,216.714c-5.064,0 -9.232,-4.167 -9.232,-9.232c0,-5.064 4.168,-9.232 9.232,-9.232c5.065,0 9.232,4.168 9.232,9.232c0,5.065 -4.167,9.232 -9.232,9.232Zm0,-12.309c-1.688,-0 -3.077,1.389 -3.077,3.077c0,1.689 1.389,3.078 3.077,3.078c1.689,-0 3.078,-1.389 3.078,-3.078c-0,-1.688 -1.389,-3.077 -3.078,-3.077Z" style="fill-rule:nonzero;"/><path d="M142.914,90.543l-18.464,0c-1.688,0 -3.077,-1.389 -3.077,-3.077c-0,-1.688 1.389,-3.078 3.077,-3.078l18.464,0c1.689,0 3.078,1.39 3.078,3.078c-0,1.688 -1.389,3.077 -3.078,3.077Z" style="fill:#fab800;fill-rule:nonzero;"/><path d="M136.76,102.852l-12.31,0c-1.688,0 -3.077,-1.389 -3.077,-3.077c-0,-1.688 1.389,-3.077 3.077,-3.077l12.31,-0c1.688,-0 3.077,1.389 3.077,3.077c0,1.688 -1.389,3.077 -3.077,3.077Z" style="fill:#fab800;fill-rule:nonzero;"/><path d="M161.378,182.864l-36.928,-0c-1.688,-0 -3.077,-1.39 -3.077,-3.078c-0,-1.688 1.389,-3.077 3.077,-3.077l36.928,-0c1.689,-0 3.078,1.389 3.078,3.077c-0,1.688 -1.389,3.078 -3.078,3.078Z" style="fill:#fab800;fill-rule:nonzero;"/><path d="M142.914,139.781c-6.752,-0 -12.309,-5.557 -12.309,-12.31c0,-6.752 5.557,-12.309 12.309,-12.309c6.753,-0 12.31,5.557 12.31,12.309c-0,6.753 -5.557,12.31 -12.31,12.31Zm0,-18.464c-3.376,-0 -6.154,2.778 -6.154,6.154c-0,3.377 2.778,6.155 6.154,6.155c3.377,-0 6.155,-2.778 6.155,-6.155c0,-3.376 -2.778,-6.154 -6.155,-6.154Z" style="fill:#fab800;fill-rule:nonzero;"/><path d="M161.378,167.477l-36.928,-0c-1.688,-0 -3.077,-1.389 -3.077,-3.078c0.021,-8.414 4.95,-16.084 12.596,-19.599c0.756,-0.347 1.621,-0.372 2.397,-0.071c4.218,1.6 8.879,1.6 13.097,0c0.775,-0.301 1.641,-0.276 2.397,0.071c7.646,3.515 12.575,11.185 12.596,19.599c-0,1.689 -1.389,3.078 -3.078,3.078Zm-33.543,-6.155l30.158,0c-0.914,-4.401 -3.698,-8.194 -7.622,-10.386c-4.848,1.532 -10.053,1.532 -14.901,0c-3.929,2.19 -6.717,5.983 -7.635,10.386Z" style="fill:#fab800;fill-rule:nonzero;"/><path d="M216.771,112.085l-6.155,-0c-1.688,-0 -3.077,-1.39 -3.077,-3.078c-0,-1.688 1.389,-3.077 3.077,-3.077l6.155,-0c1.688,-0 3.077,1.389 3.077,3.077c0,1.688 -1.389,3.078 -3.077,3.078Z" style="fill-rule:nonzero;"/><path d="M198.307,112.085l-12.31,-0c-1.688,-0 -3.077,-1.39 -3.077,-3.078c-0,-1.688 1.389,-3.077 3.077,-3.077l12.31,-0c1.688,-0 3.077,1.389 3.077,3.077c0,1.688 -1.389,3.078 -3.077,3.078Z" style="fill-rule:nonzero;"/><path d="M75.213,149.013l-6.155,-0c-1.688,-0 -3.077,-1.389 -3.077,-3.078c-0,-1.688 1.389,-3.077 3.077,-3.077l6.155,0c1.688,0 3.077,1.389 3.077,3.077c0,1.689 -1.389,3.078 -3.077,3.078Z" style="fill-rule:nonzero;"/><path d="M99.832,149.013l-12.31,-0c-1.688,-0 -3.077,-1.389 -3.077,-3.078c-0,-1.688 1.389,-3.077 3.077,-3.077l12.31,0c1.688,0 3.077,1.389 3.077,3.077c-0,1.689 -1.389,3.078 -3.077,3.078Z" style="fill-rule:nonzero;"/><path d="M226.003,124.394l-58.47,-0c-1.688,-0 -3.078,-1.389 -3.078,-3.077c0,-0.608 0.18,-1.203 0.518,-1.708l5.638,-8.448l-0,-11.386c-0,-3.376 2.778,-6.155 6.154,-6.155l49.238,0c3.376,0 6.155,2.779 6.155,6.155l-0,18.464c-0,3.377 -2.779,6.155 -6.155,6.155Zm-52.721,-6.155l52.721,0l-0,-18.464l-49.238,0l0,12.31c-0.001,0.607 -0.181,1.201 -0.517,1.707l-2.966,4.447Z" style="fill:#fab800;fill-rule:nonzero;"/><path d="M109.064,161.322l-49.238,0c-3.376,0 -6.155,-2.778 -6.155,-6.155l0,-18.464c0,-3.376 2.779,-6.154 6.155,-6.154l58.47,-0c1.688,-0 3.077,1.389 3.077,3.077c0,0.608 -0.18,1.202 -0.517,1.708l-5.638,8.447l0,11.386c0,3.377 -2.778,6.155 -6.154,6.155Zm-49.238,-24.619l-0,18.464l49.238,0l-0,-12.309c0.001,-0.608 0.18,-1.202 0.517,-1.708l2.966,-4.447l-52.721,0Z" style="fill:#fab800;fill-rule:nonzero;"/><path d="M109.064,161.322l-0,27.696l67.701,0l0,-64.624l6.155,-0l-0,64.624c-0,3.377 -2.778,6.155 -6.155,6.155l-67.701,-0c-3.377,-0 -6.155,-2.778 -6.155,-6.155l-0,-27.696l6.155,0Zm-6.155,-30.773l-0,-52.315c-0,-3.377 2.778,-6.155 6.155,-6.155l67.701,-0c3.377,-0 6.155,2.778 6.155,6.155l-0,15.386l-6.155,0l0,-15.386l-67.701,-0l-0,52.315l-6.155,-0Z" style="fill-rule:nonzero;"/><path d="M93.677,161.322l6.155,0l-0,49.238c-0,5.064 4.167,9.232 9.232,9.232l67.701,-0c5.065,-0 9.232,-4.168 9.232,-9.232l0,-86.166l6.155,-0l-0,86.166c-0.01,8.437 -6.95,15.376 -15.387,15.386l-67.701,0c-8.438,-0.01 -15.377,-6.949 -15.387,-15.386l-0,-49.238Zm-0,-30.773l-0,-67.702c0.01,-8.437 6.949,-15.377 15.387,-15.387l67.701,0c8.437,0.01 15.377,6.95 15.387,15.387l-0,30.773l-6.155,0l0,-30.773c0,-5.065 -4.167,-9.232 -9.232,-9.232l-67.701,-0c-5.065,-0 -9.232,4.167 -9.232,9.232l-0,67.702l-6.155,-0Z" style="fill-rule:nonzero;"/></g></svg>