<svg preserveAspectRatio="xMidYMid meet" data-bbox="10.542 0 467.515 488.6" height="512" width="512" viewBox="10.542 0 467.515 488.6" xmlns="http://www.w3.org/2000/svg" data-type="color" role="presentation" aria-hidden="true"><defs><style>#comp-jqr5i3ep svg [data-color="1"] {fill: #FFFFFF;}</style></defs>
    <g>
        <path d="M475.214 188.1c3.1-6 3.6-12.8 1.5-19.2s-6.5-11.6-12.5-14.6l-54-27.4c-1.5-.8-2.6-2.2-2.8-3.9l-9.4-59.8c-1.9-12.3-12.4-21.2-24.8-21.2-1.3 0-2.7.1-4 .3l-59.8 9.5c-1.7.3-3.4-.3-4.6-1.5l-42.7-42.9c-4.7-4.8-11.1-7.4-17.8-7.4s-13 2.6-17.8 7.4l-42.8 42.8c-1 1-2.4 1.6-3.8 1.6-.3 0-.6 0-.8-.1l-59.8-9.5c-1.3-.2-2.7-.3-4-.3-12.4 0-22.9 8.9-24.8 21.2l-9.4 59.8c-.3 1.7-1.3 3.1-2.8 3.9l-54 27.4c-6 3-10.4 8.2-12.5 14.6-2.1 6.4-1.5 13.2 1.5 19.2l27.5 53.9c.8 1.5.8 3.3 0 4.8l-27.5 53.9c-3.1 6-3.6 12.8-1.5 19.2 2.1 6.4 6.5 11.6 12.5 14.6l54 27.4c1.5.8 2.6 2.2 2.8 3.9l9.4 59.8c1.9 12.3 12.4 21.2 24.8 21.2 1.3 0 2.7-.1 4-.3l59.8-9.5c1.7-.3 3.4.3 4.6 1.5l42.8 42.8c4.7 4.8 11.1 7.4 17.8 7.4s13-2.6 17.8-7.4l42.8-42.8c1.2-1.2 2.9-1.8 4.6-1.5l59.8 9.5c1.3.2 2.7.3 4 .3 12.4 0 22.9-8.9 24.8-21.2l9.4-59.8c.3-1.7 1.3-3.1 2.8-3.9l54-27.4c6-3 10.4-8.2 12.5-14.6s1.5-13.2-1.5-19.2l-27.5-53.9a5.1 5.1 0 0 1 0-4.8l27.4-53.8zm-45.2 67.7l27.5 53.9c.6 1.3.8 2.7.3 4.1-.4 1.4-1.4 2.5-2.7 3.1l-54 27.4c-7.2 3.6-12.2 10.6-13.4 18.5l-9.4 59.8c-.4 2.8-3.2 4.9-6.1 4.4l-59.8-9.5c-1.3-.2-2.6-.3-4-.3-6.7 0-13 2.6-17.8 7.4l-42.5 42.8c-2 2-5.5 2-7.5 0l-42.8-42.8c-4.7-4.7-11.2-7.4-17.8-7.4-1.3 0-2.7.1-4 .3l-59.8 9.5c-2.9.5-5.7-1.6-6.1-4.4l-9.4-59.8c-1.2-7.9-6.3-14.9-13.4-18.5l-54-27.4c-1.3-.6-2.2-1.7-2.7-3.1-.4-1.4-.3-2.8.3-4.1l27.5-53.9c3.7-7.2 3.7-15.7 0-22.9l-27.5-53.9c-.6-1.3-.8-2.7-.3-4.1.4-1.4 1.4-2.5 2.7-3.1l54-27.4c7.2-3.6 12.2-10.6 13.4-18.5l9.4-59.8c.4-2.8 3.2-4.9 6.1-4.4l59.8 9.5c1.3.2 2.6.3 4 .3 6.7 0 13-2.6 17.8-7.4l42.7-42.7c2-2 5.5-2 7.5 0l42.8 42.8c4.7 4.8 11.1 7.4 17.8 7.4 1.3 0 2.7-.1 4-.3l59.8-9.5c2.9-.5 5.6 1.6 6.1 4.4l9.4 59.8c1.2 7.9 6.3 14.9 13.4 18.5l54 27.4c1.3.6 2.2 1.7 2.7 3.1s.3 2.8-.3 4.1l-27.5 53.9c-3.8 7.1-3.8 15.7-.2 22.8z" fill="#000000" data-color="1"></path>
        <path d="M322.514 184.7h-44.1v-30.6c0-16.2-4.9-28-14.6-35.1-14.9-11-34.4-5.3-36.6-4.6-4.1 1.3-6.9 5.1-6.9 9.4v39.1c0 27.5-32.8 37.2-34.1 37.6-.7.2-1.4.5-2 .8-3.3-2.4-7.3-3.9-11.7-3.9h-28.3c-10.8 0-19.5 8.8-19.5 19.5v97.7c0 10.8 8.8 19.5 19.5 19.5h28.3c4.8 0 9.2-1.8 12.7-4.7 6.2 5.1 14 8.2 22.6 8.2h95.8c23.2 0 38.7-12.8 41.4-34.2l12.9-81.8c.1-.5.1-1 .1-1.5 0-19.5-15.9-35.4-35.5-35.4zm-150.2 129.8h-27.8v-97.2h27.8v97.2zm153.2-13.8v.3c-.6 4.6-2.1 17-21.8 17h-95.8c-8.7 0-15.8-7.1-15.8-15.8v-82.7c5.6-1.7 48-15.8 48-56.5v-30.8c4-.2 8.7.3 12 2.8 4.3 3.2 6.4 9.6 6.4 19.1v40.5c0 5.5 4.4 9.9 9.9 9.9h54c8.5 0 15.4 6.7 15.7 15.1l-12.6 81.1z" fill="#fbb901" data-color="2"></path>
    </g>
</svg>