<?xml version="1.0" encoding="UTF-8" standalone="no"?><!DOCTYPE svg PUBLIC "-//W3C//DTD SVG 1.1//EN" "http://www.w3.org/Graphics/SVG/1.1/DTD/svg11.dtd"><svg width="100%" height="100%" viewBox="0 0 512 512" version="1.1" xmlns="http://www.w3.org/2000/svg" xmlns:xlink="http://www.w3.org/1999/xlink" xml:space="preserve" xmlns:serif="http://www.serif.com/" style="fill-rule:evenodd;clip-rule:evenodd;stroke-linejoin:round;stroke-miterlimit:2;"><g><path d="M87.76,91.465c90.675,-92.764 239.85,-94.54 332.614,-3.865l-26.429,0.313c-5.746,0.105 -10.237,4.701 -10.237,10.447c0.104,5.641 4.7,10.237 10.341,10.237l0.105,0l51.396,-0.626c5.746,-0.105 10.238,-4.701 10.238,-10.447l-0.627,-51.396c-0.104,-5.746 -4.701,-10.342 -10.446,-10.238c-5.746,0.105 -10.238,4.701 -10.238,10.447l0.314,26.429c-100.913,-98.614 -263.25,-96.629 -361.865,4.283c-34.159,34.996 -57.559,78.662 -67.483,126.402c-9.716,46.486 -6.373,94.54 9.61,139.146c1.567,4.179 5.537,6.895 9.715,6.895c1.15,-0 2.299,-0.209 3.448,-0.627c5.327,-1.88 8.148,-7.835 6.268,-13.267c-30.608,-85.556 -10.238,-179.156 53.276,-244.133Z" style="fill:#fbb901;fill-rule:nonzero;"/><path d="M77.209,439.122c48.159,47.009 111.568,72.812 178.739,72.812l3.029,-0c68.424,-0.836 132.356,-28.101 180.097,-77.095c34.264,-34.995 57.559,-78.766 67.483,-126.506c9.716,-46.487 6.373,-94.54 -9.61,-139.146c-1.881,-5.328 -7.835,-8.149 -13.267,-6.268c-5.328,1.88 -8.148,7.835 -6.268,13.267c30.712,85.556 10.342,179.156 -53.172,244.133c-43.98,44.919 -102.689,70.095 -165.576,70.826c-62.783,0.732 -122.119,-23.086 -167.038,-66.961l26.429,-0.314c5.746,-0.104 10.237,-4.701 10.237,-10.446c-0.104,-5.641 -4.7,-10.238 -10.341,-10.238l-0.105,0l-51.396,0.627c-2.716,0 -5.328,1.149 -7.313,3.134c-1.88,1.985 -2.925,4.597 -2.925,7.313l0.627,51.396c0.104,5.641 4.701,10.238 10.342,10.238l0.104,-0c5.746,-0.105 10.238,-4.701 10.238,-10.447l-0.314,-26.325Z" style="fill:#fbb901;fill-rule:nonzero;"/><path d="M399.064,196.556c-22.878,-55.052 -74.692,-91.615 -133.61,-95.167c-1.045,-0.104 -2.194,-0.104 -3.343,-0.209l-0.418,0c-0.626,0 -1.253,-0.104 -1.88,-0.104l-0.313,-0c-1.15,-0 -2.299,-0.105 -3.552,-0.105c-20.371,0 -40.219,3.97 -59.127,11.805c-38.234,15.774 -68.006,45.546 -83.78,83.78c-15.879,38.234 -15.879,80.333 -0,118.463c24.026,58.082 80.228,95.689 143.116,95.689c0.835,-0 1.567,-0 2.402,-0.105c0.418,0 0.941,0.105 1.358,0.105c0.209,-0 0.418,-0 0.523,-0.105c0.94,0 1.776,-0.104 2.716,-0.104l1.044,-0c0.314,-0 0.523,-0 0.836,-0.105c17.237,-0.94 34.16,-4.805 50.352,-11.491c38.234,-15.774 68.006,-45.546 83.78,-83.78c15.774,-38.234 15.879,-80.333 0,-118.462l-0.104,-0.105Zm-197.02,-63.41c-11.491,14.939 -20.684,34.474 -26.743,57.142l-36.249,0c14.103,-25.28 36.04,-45.233 62.992,-57.142Zm-72.393,77.931l41.158,-0c-2.402,14.102 -3.656,29.145 -3.656,44.919c0,15.566 1.358,30.713 3.97,44.92l-41.472,-0c-10.447,-29.25 -10.447,-60.694 -0,-89.839Zm9.401,110.418l36.876,0c6.477,23.087 16.297,43.04 28.31,58.291c-27.37,-11.491 -50.456,-31.757 -65.186,-58.291Zm110.419,67.066c-21.624,-6.372 -40.846,-32.279 -51.814,-67.066l51.814,0l-0,67.066Zm-0,-87.75l-57.142,0c-2.925,-14.207 -4.492,-29.354 -4.492,-44.919c0,-15.774 1.463,-30.922 3.97,-44.92l57.664,0l-0,89.839Zm-0,-110.418l-52.754,-0c10.55,-35.936 29.772,-61.321 52.754,-67.171l-0,67.171Zm123.581,-0.105l-28.728,0c-5.327,-19.952 -12.953,-37.398 -22.564,-51.396c21.206,11.909 39.07,29.563 51.292,51.396Zm-102.897,-67.17c22.982,5.954 42.099,31.339 52.754,67.17l-52.754,0l-0,-67.17Zm-0,87.959l57.664,-0c2.612,13.998 3.97,29.041 3.97,44.919c-0,15.566 -1.567,30.713 -4.492,44.92l-57.142,-0l-0,-89.839Zm-0,177.484l-0,-67.066l51.814,0c-10.969,34.787 -30.19,60.694 -51.814,67.066Zm49.516,-14.52c10.133,-14.312 18.386,-32.28 24.131,-52.546l29.25,0c-12.431,22.356 -30.817,40.428 -53.381,52.546Zm62.783,-73.23l-33.951,0c2.612,-14.207 3.97,-29.249 3.97,-44.919c-0,-15.774 -1.254,-30.817 -3.657,-44.92l33.638,0c10.446,29.25 10.446,60.694 -0,89.839Z" style="fill-rule:nonzero;"/></g></svg>