<?xml version="1.0" encoding="UTF-8" standalone="no"?><!DOCTYPE svg PUBLIC "-//W3C//DTD SVG 1.1//EN" "http://www.w3.org/Graphics/SVG/1.1/DTD/svg11.dtd"><svg width="100%" height="100%" viewBox="0 0 512 512" version="1.1" xmlns="http://www.w3.org/2000/svg" xmlns:xlink="http://www.w3.org/1999/xlink" xml:space="preserve" xmlns:serif="http://www.serif.com/" style="fill-rule:evenodd;clip-rule:evenodd;stroke-linejoin:round;stroke-miterlimit:2;"><g><path d="M101.568,243.993c-5.717,-0 -10.292,4.574 -10.292,10.292l0,37.529c0,45.222 36.802,81.92 81.92,81.92l117.163,0l-14.139,14.242c-4.054,4.055 -4.054,10.5 0,14.555c1.975,1.975 4.678,3.015 7.277,3.015c2.599,-0 5.302,-1.04 7.277,-3.015l31.708,-31.708c4.054,-4.054 4.054,-10.5 0,-14.554l-31.708,-31.708c-4.054,-4.054 -10.499,-4.054 -14.554,0c-4.054,4.055 -4.054,10.5 0,14.555l14.139,14.138l-117.163,0c-33.89,0 -61.336,-27.549 -61.336,-61.336l0,-37.529c0,-5.718 -4.678,-10.396 -10.292,-10.396Z" style="fill:#fbb901;fill-rule:nonzero;"/><path d="M220.706,154.484c1.975,1.975 4.678,3.014 7.277,3.014c2.599,0 5.302,-1.039 7.277,-3.014c4.055,-4.055 4.055,-10.5 0,-14.555l-14.138,-14.138l117.786,-0c33.89,-0 61.336,27.549 61.336,61.336l-0,37.529c-0,5.718 4.574,10.292 10.292,10.292c5.717,0 10.292,-4.574 10.292,-10.292l-0,-37.529c-0,-45.222 -36.802,-81.92 -81.92,-81.92l-117.786,-0l14.138,-14.139c4.055,-4.054 4.055,-10.499 0,-14.554c-4.054,-4.054 -10.5,-4.054 -14.554,0l-31.708,31.708c-4.054,4.054 -4.054,10.5 0,14.554l31.708,31.708Z" style="fill:#fbb901;fill-rule:nonzero;"/><path d="M319.467,426.961c-6.549,5.406 -10.396,13.411 -10.396,22.04l0,25.678c0,5.717 4.574,10.292 10.292,10.292c5.718,-0 10.292,-4.575 10.292,-10.292l0,-25.678c0,-2.391 1.04,-4.575 2.807,-6.134c22.455,-18.401 46.678,-30.668 51.356,-32.955c4.054,-1.975 6.757,-6.238 6.757,-10.708l0,-36.178c0,-3.43 -1.767,-6.653 -4.574,-8.524c-1.871,-1.248 -3.015,-3.327 -3.015,-5.51l0,-37.53c0,-12.995 10.5,-23.494 23.495,-23.494l8.109,-0c12.995,-0 23.495,10.499 23.495,23.494l-0,37.53c-0,2.183 -1.144,4.262 -3.015,5.51c-2.911,1.871 -4.574,5.094 -4.574,8.524l-0,36.178c-0,4.574 2.599,8.733 6.757,10.708c4.678,2.287 29.005,14.554 51.356,32.955c1.767,1.455 2.807,3.743 2.807,6.134l0,25.678c0,5.717 4.574,10.292 10.292,10.292c5.718,-0 10.292,-4.575 10.292,-10.292l0,-25.678c0,-8.525 -3.743,-16.634 -10.396,-22.04c-19.648,-16.217 -40.752,-27.965 -50.524,-33.059l-0,-26.198c4.782,-4.99 7.589,-11.747 7.589,-18.816l-0,-37.53c-0,-24.326 -19.752,-44.078 -44.079,-44.078l-8.109,-0c-24.326,-0 -44.079,19.752 -44.079,44.078l0,37.53c0,7.069 2.703,13.826 7.589,18.816l0,26.198c-9.772,5.094 -30.875,16.842 -50.524,33.059Z" style="fill-rule:nonzero;"/><path d="M149.598,108.534l-0,-37.426c-0,-24.326 -19.753,-44.079 -44.079,-44.079l-8.109,0c-24.327,0 -44.079,19.753 -44.079,44.079l0,37.53c0,7.069 2.703,13.826 7.589,18.816l0,26.198c-9.876,5.094 -30.876,16.945 -50.524,33.059c-6.55,5.406 -10.396,13.411 -10.396,22.039l-0,25.678c-0,5.718 4.574,10.292 10.292,10.292c5.718,0 10.292,-4.574 10.292,-10.292l-0,-25.678c-0,-2.391 1.04,-4.574 2.807,-6.133c22.455,-18.401 46.678,-30.668 51.356,-32.955c4.054,-1.976 6.757,-6.238 6.757,-10.708l0,-36.178c0,-3.431 -1.767,-6.653 -4.574,-8.525c-1.871,-1.247 -3.015,-3.326 -3.015,-5.509l0,-37.634c0,-12.995 10.5,-23.495 23.495,-23.495l8.109,0c12.995,0 23.495,10.5 23.495,23.495l-0,37.53c-0,2.183 -1.144,4.262 -3.015,5.509c-2.911,1.872 -4.574,5.094 -4.574,8.525l-0,36.178c-0,4.574 2.599,8.733 6.757,10.708c4.678,2.287 29.005,14.554 51.356,32.955c1.767,1.455 2.807,3.742 2.807,6.133l-0,25.678c-0,5.718 4.574,10.292 10.292,10.292c5.718,0 10.292,-4.574 10.292,-10.292l-0,-25.678c-0,-8.524 -3.743,-16.529 -10.396,-22.039c-19.649,-16.218 -40.752,-27.965 -50.524,-33.059l-0,-26.198c4.886,-4.99 7.589,-11.643 7.589,-18.816Z" style="fill-rule:nonzero;"/></g></svg>