<?xml version="1.0" encoding="UTF-8" standalone="no"?><!DOCTYPE svg PUBLIC "-//W3C//DTD SVG 1.1//EN" "http://www.w3.org/Graphics/SVG/1.1/DTD/svg11.dtd"><svg width="100%" height="100%" viewBox="0 0 512 512" version="1.1" xmlns="http://www.w3.org/2000/svg" xmlns:xlink="http://www.w3.org/1999/xlink" xml:space="preserve" xmlns:serif="http://www.serif.com/" style="fill-rule:evenodd;clip-rule:evenodd;stroke-linejoin:round;stroke-miterlimit:2;"><g><path d="M165.131,188.632c-6.58,5.431 -10.34,13.473 -10.34,21.933l-0,25.59c-0,5.745 4.595,10.34 10.34,10.34c5.745,0 10.34,-4.595 10.34,-10.34l0,-25.59c0,-2.297 1.045,-4.491 2.82,-5.953c22.352,-18.278 46.479,-30.499 51.179,-32.796c4.074,-1.985 6.789,-6.267 6.789,-10.758l0,-36.035c0,-3.447 -1.775,-6.684 -4.595,-8.564c-1.776,-1.254 -2.925,-3.238 -2.925,-5.432l0,-37.392c0,-12.847 10.445,-23.291 23.292,-23.291l8.042,-0c12.847,-0 23.292,10.444 23.292,23.291l0,37.392c0,2.194 -1.044,4.178 -2.924,5.432c-2.925,1.88 -4.596,5.117 -4.596,8.564l-0,36.035c-0,4.595 2.611,8.773 6.685,10.758c4.595,2.297 28.827,14.518 51.179,32.796c1.775,1.462 2.82,3.656 2.82,5.953l-0,25.59c-0,5.745 4.595,10.34 10.34,10.34c5.745,0 10.34,-4.595 10.34,-10.34l0,-25.59c0,-8.564 -3.76,-16.607 -10.34,-21.933c-19.636,-16.085 -40.525,-27.783 -50.344,-32.901l0,-26.008c4.805,-5.013 7.521,-11.698 7.521,-18.8l-0,-37.288c-0,-24.231 -19.741,-43.972 -43.973,-43.972l-8.042,-0c-24.232,-0 -43.972,19.741 -43.972,43.972l-0,37.392c-0,7.103 2.715,13.787 7.52,18.801l-0,25.903c-9.923,5.118 -30.812,16.816 -50.448,32.901Z" style="fill-rule:nonzero;"/><path d="M501.66,482.337c5.744,0 10.34,-4.596 10.34,-10.34l0,-25.59c0,-8.564 -3.76,-16.607 -10.34,-21.934c-19.636,-16.085 -40.526,-27.783 -50.344,-32.901l0,-26.007c4.805,-5.013 7.52,-11.698 7.52,-18.8l0,-37.392c0,-24.232 -19.74,-43.973 -43.972,-43.973l-8.042,0c-24.232,0 -43.973,19.741 -43.973,43.973l0,37.392c0,7.102 2.716,13.787 7.521,18.8l-0,26.007c-9.818,5.118 -30.708,16.816 -50.344,32.901c-6.58,5.432 -10.34,13.37 -10.34,21.934l-0,25.59c-0,5.744 4.596,10.34 10.34,10.34c5.745,0 10.34,-4.596 10.34,-10.34l0,-25.59c0,-2.298 1.045,-4.491 2.82,-5.953c22.352,-18.383 46.479,-30.603 51.18,-32.797c4.073,-1.984 6.684,-6.267 6.684,-10.758l0,-36.034c0,-3.447 -1.775,-6.685 -4.595,-8.565c-1.776,-1.253 -2.925,-3.238 -2.925,-5.431l-0,-37.392c-0,-12.847 10.445,-23.292 23.292,-23.292l8.042,0c12.847,0 23.292,10.445 23.292,23.292l-0,37.392c-0,2.193 -1.045,4.178 -2.925,5.431c-2.924,1.88 -4.595,5.118 -4.595,8.565l-0,36.034c-0,4.596 2.611,8.774 6.684,10.758c4.596,2.298 28.828,14.518 51.179,32.797c1.776,1.462 2.82,3.655 2.82,5.953l0,25.59c0,5.744 4.701,10.34 10.341,10.34Z" style="fill-rule:nonzero;"/><path d="M191.974,424.473c-19.636,-16.085 -40.526,-27.783 -50.344,-32.901l0,-26.007c4.805,-5.013 7.521,-11.698 7.521,-18.8l-0,-37.392c-0,-24.232 -19.741,-43.973 -43.973,-43.973l-8.042,0c-24.232,0 -43.972,19.741 -43.972,43.973l-0,37.392c-0,7.102 2.715,13.787 7.52,18.8l-0,26.007c-9.818,5.118 -30.708,16.816 -50.344,32.901c-6.58,5.432 -10.34,13.37 -10.34,21.934l-0,25.59c-0,5.744 4.596,10.34 10.34,10.34c5.745,0 10.341,-4.596 10.341,-10.34l-0,-25.59c-0,-2.298 1.044,-4.491 2.82,-5.953c22.351,-18.383 46.479,-30.603 51.179,-32.797c4.073,-1.984 6.684,-6.267 6.684,-10.758l0,-36.034c0,-3.447 -1.775,-6.685 -4.595,-8.565c-1.776,-1.253 -2.925,-3.238 -2.925,-5.431l0,-37.392c0,-12.847 10.445,-23.292 23.292,-23.292l8.042,0c12.847,0 23.292,10.445 23.292,23.292l0,37.392c0,2.193 -1.044,4.178 -2.925,5.431c-2.924,1.88 -4.595,5.118 -4.595,8.565l-0,36.034c-0,4.596 2.611,8.774 6.684,10.758c4.596,2.298 28.828,14.414 51.18,32.797c1.775,1.462 2.82,3.655 2.82,5.953l-0,25.59c-0,5.744 4.595,10.34 10.34,10.34c5.744,0 10.34,-4.596 10.34,-10.34l0,-25.59c0,-8.564 -3.76,-16.607 -10.34,-21.934Z" style="fill-rule:nonzero;"/><path d="M314.804,362.745c1.561,0.885 3.324,1.352 5.118,1.358c3.551,-0 7.102,-1.88 8.982,-5.223c2.82,-4.909 1.149,-11.28 -3.76,-14.1l-57.968,-33.423l-0,-66.951c-0,-5.744 -4.596,-10.34 -10.34,-10.34c-5.745,0 -10.341,4.596 -10.341,10.34l0,66.951l-57.968,33.528c-4.909,2.82 -6.684,9.191 -3.76,14.1c1.88,3.342 5.431,5.222 8.982,5.222c1.776,0 3.552,-0.418 5.118,-1.358l57.969,-33.527l57.968,33.423Z" style="fill:#fbb901;fill-rule:nonzero;"/></g></svg>