<?xml version="1.0" encoding="UTF-8" standalone="no"?><!DOCTYPE svg PUBLIC "-//W3C//DTD SVG 1.1//EN" "http://www.w3.org/Graphics/SVG/1.1/DTD/svg11.dtd"><svg width="100%" height="100%" viewBox="0 0 512 512" version="1.1" xmlns="http://www.w3.org/2000/svg" xmlns:xlink="http://www.w3.org/1999/xlink" xml:space="preserve" xmlns:serif="http://www.serif.com/" style="fill-rule:evenodd;clip-rule:evenodd;stroke-linejoin:round;stroke-miterlimit:2;"><g><path d="M209.834,386.35l-120.218,0c-5.745,0 -10.341,4.596 -10.341,10.34c0,5.745 4.596,10.341 10.341,10.341l111.34,-0c3.238,8.982 11.907,15.353 21.934,15.353l66.011,0c10.027,0 18.696,-6.371 21.934,-15.353l111.445,-0c5.744,-0 10.34,-4.596 10.34,-10.341c0,-5.744 -4.596,-10.34 -10.34,-10.34l-120.219,0c-5.744,0 -10.34,4.596 -10.34,10.34l-0,2.298c-0,1.462 -1.253,2.716 -2.716,2.716l-66.01,-0c-1.463,-0 -2.716,-1.254 -2.716,-2.716l0,-2.298c-0.104,-5.744 -4.7,-10.34 -10.445,-10.34Z" style="fill-rule:nonzero;"/><path d="M501.66,386.35l-27.157,0l0,-238.244c0,-5.745 -4.595,-10.34 -10.34,-10.34c-5.744,-0 -10.34,4.595 -10.34,10.34l-0,248.584c-0,5.745 4.7,10.341 10.445,10.341l27.051,-0l0,14.204c0,14.623 -11.907,26.53 -26.529,26.53l-417.58,-0c-14.622,-0 -26.529,-11.907 -26.529,-26.53l-0,-14.204l27.051,-0c5.745,-0 10.341,-4.596 10.341,-10.341l-0,-248.584c-0,-5.745 -4.596,-10.34 -10.341,-10.34c-5.744,-0 -10.34,4.595 -10.34,10.34l0,238.244l-27.052,0c-5.744,0 -10.34,4.596 -10.34,10.34l-0,24.545c-0,26.008 21.203,47.211 47.21,47.211l417.58,-0c26.007,-0 47.21,-21.203 47.21,-47.211l-0,-24.545c-0,-5.744 -4.596,-10.34 -10.34,-10.34Z" style="fill-rule:nonzero;"/><path d="M296.212,116.25l-59.639,59.326l-20.785,-20.89c-4.074,-4.073 -10.549,-4.073 -14.623,0c-4.073,4.074 -4.073,10.549 0,14.623l27.992,28.201c1.985,1.984 4.7,3.029 7.311,3.029c2.612,-0 5.223,-1.045 7.312,-3.029l67.055,-66.638c4.073,-4.073 4.073,-10.549 -0,-14.622c-3.969,-3.969 -10.549,-4.074 -14.623,-0Z" style="fill:#fbb901;fill-rule:nonzero;"/><path d="M383.634,43.554l-255.268,0c-20.89,0 -37.915,17.025 -37.915,37.915l0,150.821c0,20.89 17.025,37.915 37.915,37.915l10.758,-0l-0,45.434c-0,8.461 6.893,15.25 15.353,15.25c4.387,-0 8.565,-1.88 11.49,-5.327l47.836,-55.357l169.831,-0c20.89,-0 37.915,-17.025 37.915,-37.915l-0,-150.821c-0,-20.89 -17.025,-37.915 -37.915,-37.915Zm17.234,188.736c0,9.505 -7.729,17.234 -17.234,17.234l-174.635,0c-3.029,0 -5.849,1.254 -7.834,3.551l-41.465,47.942l-0,-41.152c-0,-5.745 -4.596,-10.341 -10.341,-10.341l-21.098,0c-9.505,0 -17.234,-7.729 -17.234,-17.234l0,-150.821c0,-9.505 7.729,-17.234 17.234,-17.234l255.269,0c9.505,0 17.234,7.729 17.234,17.234l-0,150.821l0.104,0Z" style="fill-rule:nonzero;"/></g></svg>