<?xml version="1.0" encoding="UTF-8" standalone="no"?><!DOCTYPE svg PUBLIC "-//W3C//DTD SVG 1.1//EN" "http://www.w3.org/Graphics/SVG/1.1/DTD/svg11.dtd"><svg width="100%" height="100%" viewBox="0 0 512 512" version="1.1" xmlns="http://www.w3.org/2000/svg" xmlns:xlink="http://www.w3.org/1999/xlink" xml:space="preserve" xmlns:serif="http://www.serif.com/" style="fill-rule:evenodd;clip-rule:evenodd;stroke-linejoin:round;stroke-miterlimit:2;"><g><path d="M461.84,185.716c12.437,0 22.47,-10.033 22.47,-22.47l-0,-20.379c-0,-12.437 -10.033,-22.47 -22.47,-22.47l-10.556,-0c-2.717,-10.242 -6.793,-19.962 -12.123,-29.159l7.42,-7.42c8.779,-8.779 8.779,-22.993 0,-31.771l-14.422,-14.423c-4.285,-4.285 -9.929,-6.584 -15.886,-6.584c-5.957,-0 -11.601,2.299 -15.886,6.584l-7.42,7.42c-9.197,-5.225 -18.916,-9.301 -29.159,-12.123l0,-10.451c0,-12.437 -10.033,-22.47 -22.469,-22.47l-20.38,-0c-12.437,-0 -22.47,10.033 -22.47,22.47l-0,10.556c-10.242,2.717 -19.962,6.793 -29.159,12.123l-7.42,-7.42c-4.285,-4.285 -9.928,-6.585 -15.886,-6.585c-5.957,0 -11.6,2.3 -15.885,6.585l-14.423,14.422c-8.779,8.779 -8.779,22.992 0,31.771l7.42,7.421c-5.225,9.197 -9.301,18.916 -12.123,29.158l-10.555,0c-12.437,0 -22.47,10.033 -22.47,22.47l-0,20.38c-0,12.437 10.033,22.47 22.47,22.47l10.555,-0c2.717,10.242 6.793,19.961 12.123,29.158l-7.42,7.421c-8.779,8.779 -8.779,22.992 0,31.771l14.423,14.423c4.285,4.285 9.928,6.584 15.885,6.584c5.958,-0 11.601,-2.299 15.886,-6.584l7.42,-7.421c9.197,5.226 18.917,9.302 29.159,12.124l-0,10.555c-0,12.437 10.033,22.47 22.47,22.47l20.38,0c12.436,0 22.469,-10.033 22.469,-22.47l0,-10.555c10.243,-2.718 19.962,-6.794 29.159,-12.124l7.42,7.421c4.285,4.285 9.929,6.584 15.886,6.584c5.957,-0 11.601,-2.299 15.886,-6.584l14.422,-14.423c8.779,-8.779 8.779,-22.992 0,-31.771l-7.42,-7.421c5.226,-9.197 9.301,-18.916 12.123,-29.158l10.556,-0l-0,-0.105Zm-28.845,-12.332c-2.613,13.377 -7.839,25.919 -15.468,37.31c-2.717,4.076 -2.195,9.615 1.254,13.064l13.273,13.273c0.732,0.732 0.732,1.777 0,2.508l-14.422,14.319c-0.418,0.418 -0.941,0.522 -1.254,0.522c-0.314,0 -0.837,-0.104 -1.255,-0.522l-13.272,-13.273c-3.449,-3.449 -8.988,-4.076 -13.064,-1.255c-11.392,7.63 -23.933,12.751 -37.311,15.468c-4.807,0.941 -8.361,5.226 -8.361,10.138l0,18.707c0,0.941 -0.836,1.777 -1.776,1.777l-20.38,-0c-0.941,-0 -1.777,-0.836 -1.777,-1.777l0,-18.707c0,-4.912 -3.449,-9.197 -8.361,-10.138c-13.377,-2.613 -25.918,-7.838 -37.31,-15.468c-1.777,-1.149 -3.763,-1.776 -5.748,-1.776c-2.718,-0 -5.33,1.045 -7.316,3.031l-13.064,13.273c-0.418,0.418 -0.941,0.522 -1.254,0.522c-0.314,0 -0.836,-0.104 -1.254,-0.522l-14.423,-14.423c-0.731,-0.732 -0.731,-1.777 0,-2.508l13.273,-13.273c3.449,-3.449 4.076,-8.988 1.254,-13.064c-7.629,-11.392 -12.75,-23.933 -15.467,-37.311c-0.941,-4.807 -5.226,-8.36 -10.138,-8.36l-18.707,-0c-0.941,-0 -1.777,-0.837 -1.777,-1.777l-0,-20.38c-0,-0.94 0.836,-1.776 1.777,-1.776l18.707,-0c4.912,-0 9.197,-3.449 10.138,-8.361c2.612,-13.378 7.838,-25.919 15.467,-37.311c2.718,-4.076 2.195,-9.615 -1.254,-13.064l-13.273,-13.273c-0.731,-0.731 -0.731,-1.776 0,-2.508l14.423,-14.422c0.418,-0.419 0.94,-0.523 1.254,-0.523c0.313,-0 0.836,0.104 1.254,0.523l13.273,13.272c3.449,3.449 8.988,4.076 13.064,1.255c11.392,-7.63 23.933,-12.751 37.31,-15.468c4.808,-0.941 8.361,-5.226 8.361,-10.138l0,-18.498c0,-0.941 0.836,-1.777 1.777,-1.777l20.38,0c0.94,0 1.776,0.836 1.776,1.777l0,18.707c0,4.912 3.449,9.197 8.361,10.138c13.378,2.613 25.919,7.838 37.311,15.468c4.076,2.717 9.615,2.194 13.064,-1.255l13.272,-13.272c0.418,-0.418 0.941,-0.523 1.255,-0.523c0.313,0 0.836,0.105 1.254,0.523l14.422,14.422c0.732,0.732 0.732,1.777 0,2.508l-13.482,13.273c-3.449,3.449 -4.076,8.988 -1.254,13.064c7.629,11.392 12.751,23.933 15.468,37.311c0.94,4.807 5.225,8.361 10.137,8.361l18.708,-0c0.94,-0 1.777,0.836 1.777,1.776l-0,20.38c-0,0.94 -0.837,1.777 -1.777,1.777l-18.708,-0c-4.912,-0.105 -9.198,3.344 -10.137,8.256Z" style="fill:#fbb901;fill-rule:nonzero;"/><path d="M331.201,87.789c-35.952,0 -65.215,29.263 -65.215,65.215c0,35.952 29.263,65.215 65.215,65.215c35.952,0 65.215,-29.263 65.215,-65.215c-0,-35.952 -29.263,-65.215 -65.215,-65.215Zm-0,109.737c-24.56,0 -44.522,-19.962 -44.522,-44.522c0,-24.56 19.962,-44.521 44.522,-44.521c24.56,-0 44.522,19.961 44.522,44.521c-0,24.56 -19.962,44.522 -44.522,44.522Z" style="fill:#fbb901;fill-rule:nonzero;"/><path d="M110.054,471.554l35.012,-5.225l-0,35.324c-0,5.749 4.598,10.347 10.346,10.347l192.092,0c5.748,0 10.346,-4.598 10.346,-10.347l0,-129.802c20.171,-19.439 35.325,-43.582 43.999,-70.127c1.777,-5.435 -1.149,-11.288 -6.584,-13.064c-5.434,-1.777 -11.287,1.149 -13.064,6.584c-8.152,24.56 -22.574,46.925 -41.7,64.483c-2.09,1.986 -3.344,4.703 -3.344,7.63l0,123.845l-171.398,0l-0,-36.892c-0,-3.031 -1.359,-5.853 -3.554,-7.838c-2.299,-1.986 -5.33,-2.822 -8.256,-2.404l-46.089,6.898c-12.855,-0.419 -23.097,-10.87 -23.097,-23.829l-0,-60.094c-0,-5.748 -4.599,-10.347 -10.347,-10.347l-15.572,0c-4.808,0 -8.465,-1.358 -9.824,-3.553c-1.359,-2.195 -0.836,-6.062 1.463,-10.347l33.026,-63.229c0.731,-1.463 1.149,-3.135 1.149,-4.807l0,-26.964c0,-58.84 34.489,-112.977 88.103,-137.85c5.121,-2.404 10.347,-4.599 15.677,-6.375c5.434,-1.882 8.256,-7.734 6.479,-13.169c-1.881,-5.434 -7.733,-8.256 -13.168,-6.48c-6.062,2.091 -12.019,4.494 -17.662,7.212c-60.721,28.218 -99.913,89.67 -99.913,156.557l0,24.456l-31.98,60.93c-5.749,10.869 -5.958,22.052 -0.836,30.622c5.225,8.57 15.258,13.482 27.486,13.482l5.225,-0l0,49.747c0,24.56 19.962,44.522 44.522,44.522c0.418,0.209 0.941,0.104 1.463,0.104Z" style="fill-rule:nonzero;"/></g></svg>