<?xml version="1.0" encoding="UTF-8" standalone="no"?><!DOCTYPE svg PUBLIC "-//W3C//DTD SVG 1.1//EN" "http://www.w3.org/Graphics/SVG/1.1/DTD/svg11.dtd"><svg width="100%" height="100%" viewBox="0 0 512 512" version="1.1" xmlns="http://www.w3.org/2000/svg" xmlns:xlink="http://www.w3.org/1999/xlink" xml:space="preserve" xmlns:serif="http://www.serif.com/" style="fill-rule:evenodd;clip-rule:evenodd;stroke-linejoin:round;stroke-miterlimit:2;"><g><path d="M376.104,277.351l49.143,-0c5.818,17.766 22.545,30.545 42.285,30.545c24.52,0 44.468,-19.948 44.468,-44.467c-0,-24.52 -19.948,-44.468 -44.468,-44.468c-22.233,0 -40.727,16.52 -43.948,37.922l-47.48,0c-5.714,0 -10.286,4.572 -10.286,10.286c0,5.61 4.676,10.182 10.286,10.182Zm91.428,-37.819c13.195,0 23.897,10.702 23.897,23.897c-0,13.194 -10.702,23.896 -23.897,23.896c-13.194,-0 -23.896,-10.702 -23.896,-23.896c0,-13.195 10.702,-23.897 23.896,-23.897Z" style="fill:#fbb901;fill-rule:nonzero;"/><path d="M334.338,182.909c1.974,1.974 4.675,3.013 7.272,3.013c2.598,0 5.299,-1.039 7.273,-3.013l32,-32c7.273,4.883 15.792,7.481 24.727,7.481c11.845,-0 23.065,-4.676 31.481,-12.987c17.351,-17.351 17.351,-45.611 -0,-62.961c-8.416,-8.416 -19.636,-12.987 -31.481,-12.987c-11.844,-0 -23.065,4.675 -31.48,12.987c-14.442,14.441 -16.831,36.467 -7.169,53.402l-32.519,32.52c-4.052,3.948 -4.052,10.493 -0.104,14.545Zm54.337,-86.026c4.572,-4.571 10.494,-6.961 16.935,-6.961c6.442,0 12.364,2.494 16.935,6.961c9.351,9.351 9.351,24.52 0,33.87c-4.571,4.572 -10.493,7.065 -16.935,7.065c-6.441,0 -12.363,-2.493 -16.935,-7.065c-9.35,-9.35 -9.35,-24.519 0,-33.87Z" style="fill:#fbb901;fill-rule:nonzero;"/><path d="M242.39,94.286l-0,49.35c-0,5.715 4.571,10.286 10.285,10.286c5.715,0 10.286,-4.571 10.286,-10.286l0,-47.792c21.195,-3.325 37.507,-21.714 37.507,-43.948c-0,-24.519 -19.949,-44.467 -44.468,-44.467c-24.519,-0 -44.468,19.948 -44.468,44.467c0,19.844 12.987,36.572 30.858,42.39Zm13.61,-66.286c13.195,0 23.896,10.701 23.896,23.896c0,13.195 -10.701,23.896 -23.896,23.896c-13.195,0 -23.896,-10.701 -23.896,-23.896c-0,-13.195 10.701,-23.896 23.896,-23.896Z" style="fill:#fbb901;fill-rule:nonzero;"/><path d="M44.468,308c19.636,0 36.363,-12.883 42.285,-30.545l45.091,-0c5.714,-0 10.286,-4.572 10.286,-10.286c-0,-5.714 -4.572,-10.286 -10.286,-10.286l-43.428,0c-3.221,-21.402 -21.715,-37.922 -43.948,-37.922c-24.52,0 -44.468,19.948 -44.468,44.468c-0.104,24.519 19.948,44.571 44.468,44.571Zm-0,-68.468c13.194,0 23.896,10.702 23.896,23.897c-0,13.194 -10.702,23.896 -23.896,23.896c-13.195,-0 -23.897,-10.702 -23.897,-23.896c-0.103,-13.195 10.702,-23.897 23.897,-23.897Z" style="fill:#fbb901;fill-rule:nonzero;"/><path d="M106.39,158.39c8,-0 15.688,-2.182 22.441,-6.13l32.52,32.519c1.974,1.974 4.675,3.013 7.272,3.013c2.598,0 5.299,-1.039 7.273,-3.013c4.052,-4.052 4.052,-10.493 0,-14.545l-32.208,-32.208c11.117,-17.247 9.247,-40.52 -5.922,-55.688c-8.415,-8.416 -19.636,-12.987 -31.48,-12.987c-11.844,-0 -23.065,4.675 -31.481,12.987c-17.35,17.35 -17.35,45.61 0,62.961c8.52,8.415 19.74,13.091 31.585,13.091Zm-16.935,-61.507c4.571,-4.571 10.493,-6.961 16.935,-6.961c6.441,0 12.363,2.494 16.935,6.961c9.35,9.351 9.35,24.52 -0,33.87c-4.572,4.572 -10.494,7.065 -16.935,7.065c-6.442,0 -12.364,-2.493 -16.935,-7.065c-9.351,-9.35 -9.351,-24.519 -0,-33.87Z" style="fill:#fbb901;fill-rule:nonzero;"/><path d="M200.208,331.273l-0,44.675c-13.091,6.649 -46.65,24.935 -77.922,50.597c-8.728,7.169 -13.715,17.767 -13.715,29.091l0,38.65c0,5.714 4.572,10.285 10.286,10.285c5.714,0 10.286,-4.571 10.286,-10.285l-0,-38.65c-0,-5.091 2.286,-9.974 6.234,-13.194c34.181,-28.052 71.168,-46.754 78.233,-50.182c4.468,-2.182 7.169,-6.546 7.169,-11.533l0,-54.337c0,-3.429 -1.766,-6.65 -4.571,-8.52c-4.26,-2.805 -6.753,-7.584 -6.753,-12.571l-0,-56.416c-0,-22.338 18.181,-40.519 40.519,-40.519l12.156,-0c22.338,-0 40.519,18.181 40.519,40.519l0,56.416c0,5.091 -2.493,9.766 -6.753,12.571c-2.909,1.87 -4.571,5.091 -4.571,8.52l-0,54.337c-0,4.883 2.805,9.351 7.169,11.533c7.064,3.428 44.051,22.13 78.233,50.182c3.948,3.22 6.234,8 6.234,13.194l0,38.65c0,5.714 4.571,10.285 10.286,10.285c5.714,0 10.285,-4.571 10.285,-10.285l0,-38.65c0,-11.324 -4.987,-21.922 -13.714,-29.091c-31.273,-25.766 -64.831,-43.948 -77.922,-50.597l0,-44.675c7.169,-6.65 11.325,-16.104 11.325,-26.078l-0,-56.416c-0,-33.662 -27.429,-61.091 -61.091,-61.091l-12.156,0c-33.662,0 -61.091,27.429 -61.091,61.091l0,56.416c0,9.974 4.156,19.428 11.325,26.078Z" style="fill-rule:nonzero;"/></g></svg>