<?xml version="1.0" encoding="UTF-8" standalone="no"?><!DOCTYPE svg PUBLIC "-//W3C//DTD SVG 1.1//EN" "http://www.w3.org/Graphics/SVG/1.1/DTD/svg11.dtd"><svg width="100%" height="100%" viewBox="0 0 512 512" version="1.1" xmlns="http://www.w3.org/2000/svg" xmlns:xlink="http://www.w3.org/1999/xlink" xml:space="preserve" xmlns:serif="http://www.serif.com/" style="fill-rule:evenodd;clip-rule:evenodd;stroke-linejoin:round;stroke-miterlimit:2;"><g><path d="M122.253,229.878l-111.909,-0c-5.746,-0 -10.344,4.597 -10.344,10.344l0,259.135c0,5.747 4.598,10.344 10.344,10.344l111.909,0c5.747,0 10.345,-4.597 10.345,-10.344l-0,-259.135c-0,-5.747 -4.598,-10.344 -10.345,-10.344Zm-10.24,259.134l-91.324,0l-0,-238.445l91.324,-0l0,238.445Z" style="fill-rule:nonzero;"/><path d="M312.007,2.299l-112.014,-0c-5.746,-0 -10.344,4.597 -10.344,10.344l-0,486.609c-0,5.747 4.598,10.345 10.344,10.345l112.014,-0c5.746,-0 10.344,-4.598 10.344,-10.345l0,-486.609c0,-5.642 -4.598,-10.344 -10.344,-10.344Zm-10.345,486.713l-91.324,0l-0,-466.024l91.324,-0l0,466.024Z" style="fill:#fbb901;fill-rule:nonzero;"/><path d="M501.656,509.701c5.746,0 10.344,-4.597 10.344,-10.344l0,-329.457c0,-5.747 -4.598,-10.344 -10.344,-10.344l-111.909,-0c-5.747,-0 -10.345,4.597 -10.345,10.344l0,329.352c0,5.747 4.598,10.345 10.345,10.345l111.909,-0l-0,0.104Zm-101.565,-329.456l91.325,-0l-0,308.767l-91.325,0l0,-308.767Z" style="fill-rule:nonzero;"/></g></svg>