<svg width="100%" height="100%" viewBox="0 0 512 512" version="1.1" xmlns="http://www.w3.org/2000/svg" xmlns:xlink="http://www.w3.org/1999/xlink" xml:space="preserve" xmlns:serif="http://www.serif.com/" style="fill-rule:evenodd;clip-rule:evenodd;stroke-linejoin:round;stroke-miterlimit:2;"><rect id="favicon" x="0" y="0" width="512" height="512" style="fill:none;"/><path d="M297.179,277.628l-43.842,-44.447l-46.285,46.887l182.952,0l-47.629,-47.629l-45.196,45.189Z" style="fill:#004560;fill-rule:nonzero;"/><path d="M300.671,97.486l44.483,44.482l-46.625,46.624l-44.482,-44.482l46.624,-46.624Z" style="fill:#fab800;"/><path d="M388.782,185.816l-46.622,46.623l47.629,47.629l93.247,0l-94.254,-94.252Z" style="fill:#17b7e7;fill-rule:nonzero;"/><path d="M342.853,233.616l46.72,-47.01l-44.419,-44.637l-46.513,46.477l44.212,45.17Z" style="fill:#7fc3e8;fill-rule:nonzero;"/><path d="M165.01,145.457l-135.881,134.61l88.96,-0l90.768,-90.763l-43.847,-43.847Z" style="fill:#00709c;fill-rule:nonzero;"/><path d="M253.709,143.638l-135.616,136.427l88.959,-0l91.308,-91.719l-44.651,-44.708Z" style="fill:#009dde;fill-rule:nonzero;"/><path d="M164.846,414.514l43.847,-43.846l-90.768,-90.762l-88.961,0l135.882,134.608Z" style="fill:#70b1d0;fill-rule:nonzero;"/><path d="M208.543,371.039l43.846,-43.847l-45.215,-47.221l-89.473,0.002l90.842,91.066Z" style="fill:#e5eff6;fill-rule:nonzero;"/><path d="M254.048,144.112l-45.194,45.191l-43.843,-43.847l45.193,-45.19l43.844,43.846Z" style="fill:#0087c0;"/><path d="M297.176,277.627l45.98,-44.016l-44.83,-45.605l-45.395,45.175l44.245,44.446Z" style="fill:#006289;fill-rule:nonzero;"/></svg>