<?xml version="1.0" encoding="UTF-8" standalone="no"?><!DOCTYPE svg PUBLIC "-//W3C//DTD SVG 1.1//EN" "http://www.w3.org/Graphics/SVG/1.1/DTD/svg11.dtd"><svg width="100%" height="100%" viewBox="0 0 512 512" version="1.1" xmlns="http://www.w3.org/2000/svg" xmlns:xlink="http://www.w3.org/1999/xlink" xml:space="preserve" xmlns:serif="http://www.serif.com/" style="fill-rule:evenodd;clip-rule:evenodd;stroke-linejoin:round;stroke-miterlimit:2;"><g><path d="M450.432,89.448l-100.014,0c-5.754,0 -10.358,4.603 -10.358,10.357c0,5.754 4.604,10.358 10.358,10.358l100.014,-0c11.299,-0 20.505,9.206 20.505,20.505l0,257.151c0,11.298 -9.206,20.505 -20.505,20.505l-388.76,-0c-11.298,-0 -20.505,-9.207 -20.505,-20.505l0,-257.151c0,-11.299 9.207,-20.505 20.505,-20.505l101.584,-0c5.754,-0 10.357,-4.604 10.357,-10.358c0,-5.754 -4.603,-10.357 -10.357,-10.357l-101.584,0c-22.702,0 -41.219,18.518 -41.219,41.22l-0,257.151c-0,22.702 18.517,41.219 41.219,41.219l184.023,0l0,62.248l-85.996,-0c-5.754,-0 -10.357,4.603 -10.357,10.357c0,5.754 4.603,10.357 10.357,10.357l192.602,0c5.754,0 10.357,-4.603 10.357,-10.357c-0,-5.754 -4.603,-10.357 -10.357,-10.357l-85.996,-0l-0,-62.248l184.023,0c22.702,0 41.219,-18.517 41.219,-41.219l0,-257.151c0.105,-22.702 -18.413,-41.22 -41.115,-41.22Z" style="fill-rule:nonzero;"/><path d="M314.429,40.696c0,-22.388 -18.203,-40.696 -40.696,-40.696l-35.466,0c-22.388,0 -40.696,18.204 -40.696,40.696l-0,24.376c-0,0.628 0.105,1.256 0.209,1.779c-0.104,0.628 -0.209,1.151 -0.209,1.778l-0,202.122c-0,2.302 0.732,4.499 2.092,6.277l48.02,63.085c1.988,2.615 5.022,4.08 8.265,4.08c3.243,-0 6.277,-1.465 8.265,-4.08l48.019,-63.085c1.36,-1.778 2.092,-3.975 2.092,-6.277l0,-202.436c0,-0.523 -0.104,-1.15 -0.209,-1.673c0.105,-0.523 0.209,-1.047 0.209,-1.674l0,-24.272l0.105,0Zm-96.039,34.734l27.305,-0l0,183.499l-27.305,0l-0,-183.499Zm37.662,241.353l-28.351,-37.244l56.703,0l-28.352,37.244Zm37.663,-57.854l-27.306,0l0,-183.499l27.306,-0l-0,183.499Zm0.104,-204.214l-75.429,0l-0,-14.019c-0,-10.985 8.997,-19.982 19.982,-19.982l35.465,0c10.985,0 19.982,8.997 19.982,19.982l0,14.019Z" style="fill:#fbb901;fill-rule:nonzero;"/></g></svg>