<?xml version="1.0" encoding="UTF-8" standalone="no"?><!DOCTYPE svg PUBLIC "-//W3C//DTD SVG 1.1//EN" "http://www.w3.org/Graphics/SVG/1.1/DTD/svg11.dtd"><svg width="100%" height="100%" viewBox="0 0 160 160" version="1.1" xmlns="http://www.w3.org/2000/svg" xmlns:xlink="http://www.w3.org/1999/xlink" xml:space="preserve" xmlns:serif="http://www.serif.com/" style="fill-rule:evenodd;clip-rule:evenodd;stroke-linejoin:round;stroke-miterlimit:2;"><g><path d="M98.6,35c2,0 3.7,1.5 4.1,3.4l6,0c-0.4,-5.2 -4.8,-9.4 -10.1,-9.4l-26.9,0l0,6l26.9,0Z" style="fill-rule:nonzero;"/><circle cx="73.8" cy="130.2" r="4"/><path d="M58.8,15.5l-45,0c-4.8,0 -8.8,4 -8.8,8.8l-0,26.3c-0,4.9 4,8.8 8.8,8.8l30.8,0l8.3,9c0.6,0.6 1.4,1 2.2,1c0.4,0 0.7,-0.1 1.1,-0.2c1.2,-0.4 1.9,-1.6 1.9,-2.8l0,-6.9l0.7,0c4.9,0 8.8,-3.9 8.8,-8.8l0,-26.4c0.1,-4.8 -3.9,-8.8 -8.8,-8.8Zm2.9,35.1c-0,1.5 -1.3,2.8 -2.8,2.8l-3.7,0c-1.7,0 -3,1.3 -3,3l-0,2.3l-4,-4.3c-0.6,-0.6 -1.4,-1 -2.2,-1l-32.2,0c-1.6,0 -2.8,-1.3 -2.8,-2.8l-0,-26.3c-0,-1.5 1.3,-2.8 2.8,-2.8l45,0c1.6,0 2.8,1.3 2.8,2.8l-0,26.3l0.1,0Z" style="fill-rule:nonzero;"/><path d="M48.1,32.8l-5.1,0c-0.3,0 -0.6,0.1 -0.8,0.2l-0.5,-0.5c-0.6,-0.6 -1,-1.2 -1.3,-2c-0.3,-0.7 -0.5,-1.5 -0.5,-2.3l0,-2c0,-0.7 -0.4,-1.4 -1,-1.7l-0.7,-0.4c-0.3,-0.2 -0.7,-0.4 -1.1,-0.5c-1.2,-0.3 -2.6,0.1 -3.5,1.1c-0.9,0.9 -1.3,2 -1.4,3.2l0,0.2c-0.1,1.5 0,2.9 0.2,4.4l-5.1,0c-0.7,0 -1.3,0.2 -1.9,0.5c-1.3,0.7 -2.1,2.1 -2.1,3.6c0,0.3 0,0.8 1.8,8.8c0.2,1.1 0.8,2 1.5,2.8c1.1,1.1 2.6,1.7 4.1,1.7l8.8,0c0.6,0 1.2,-0.1 1.7,-0.2c0.3,0.7 1,1.1 1.8,1.1l5.1,0c1.1,0 2,-0.9 2,-2l0,-14c0,-1.1 -0.9,-2 -2,-2Zm-17.4,13.1c-0.5,-0 -0.9,-0.2 -1.2,-0.5c-0.2,-0.2 -0.4,-0.5 -0.5,-0.8c-1.1,-4.7 -1.6,-7.3 -1.7,-8l0.1,-0.1l7.5,-0c0.6,-0 1.2,-0.3 1.5,-0.7c0.4,-0.5 0.5,-1.1 0.4,-1.6l-0.2,-1.2c-0.1,-0.7 -0.2,-1.4 -0.3,-2.1c0.1,0.4 0.2,0.7 0.4,1.1c0.5,1.2 1.2,2.3 2.2,3.3l2.2,2.2l0,8.2c-0.5,0.1 -1,0.2 -1.5,0.2l-8.9,0Z" style="fill:#fbb901;fill-rule:nonzero;"/><path d="M144.5,42.4l-58.2,0c-5.8,0 -10.5,4.7 -10.5,10.5l0,34c0,5.8 4.7,10.5 10.5,10.5l1.8,0l0,9.9c0,1.2 0.8,2.3 1.9,2.8c0.4,0.1 0.7,0.2 1.1,0.2c0.8,0 1.6,-0.3 2.2,-1l11,-11.9l40.2,0c5.8,0 10.5,-4.7 10.5,-10.5l0,-34c0,-5.8 -4.7,-10.5 -10.5,-10.5Zm4.5,44.5c0,2.5 -2,4.5 -4.5,4.5l-41.5,0c-0.8,0 -1.6,0.4 -2.2,1l-6.6,7.2l0,-5.2c0,-1.7 -1.3,-3 -3,-3l-4.8,0c-2.5,0 -4.5,-2 -4.5,-4.5l0,-34c0,-2.5 2,-4.5 4.5,-4.5l58.2,0c2.5,0 4.5,2 4.5,4.5l0,34l-0.1,0Z" style="fill-rule:nonzero;"/><path d="M129.2,64.6c-0.7,-0.4 -1.4,-0.6 -2.2,-0.6l-7.3,0c0.3,-2.1 0.4,-4.2 0.4,-6.3l0,-0.2c-0.1,-1.4 -0.6,-2.8 -1.7,-3.8c-1,-1.1 -2.6,-1.5 -4,-1.2c-0.5,0.1 -0.9,0.3 -1.3,0.5l-0.9,0.5c-0.6,0.4 -1,1 -1,1.7l0,2.5c0,1.1 -0.2,2.2 -0.6,3.2c-0.4,1 -1,2 -1.8,2.8l-1,1c-0.3,-0.2 -0.7,-0.4 -1.1,-0.4l-6.6,0c-1.1,0 -2,0.9 -2,2l0,18.1c0,1.1 0.9,2 2,2l6.6,0c0.9,0 1.7,-0.7 1.9,-1.5c0.9,0.2 1.7,0.3 2.6,0.3l11.4,0c1.8,0 3.6,-0.7 4.9,-2c0.9,-0.9 1.5,-2.1 1.8,-3.3c2.3,-10.3 2.3,-11 2.3,-11.3c0.1,-1.6 -0.8,-3.1 -2.4,-4Zm-3.7,14.6c-0.1,0.5 -0.4,1 -0.8,1.4c-0.5,0.5 -1.3,0.8 -2,0.8l-11.4,0c-0.9,0 -1.7,-0.1 -2.6,-0.4l-0,-11.3l3,-3c1.2,-1.2 2.1,-2.5 2.7,-4c0.6,-1.5 0.9,-3.1 0.9,-4.8l-0,-1.4c-0,0 0.1,0 0.2,0.1c0.3,0.3 0.5,0.8 0.5,1.2l-0,0.2c0.1,2.1 -0.1,4.2 -0.4,6.3l-0.3,1.5c-0.1,0.6 -0,1.2 0.4,1.6c0.4,0.5 0.9,0.7 1.5,0.7l9.7,0c0.1,0 0.2,0 0.3,0.1c0.2,0.1 0.4,0.3 0.4,0.6c-0,0.5 -0.6,3.6 -2.1,10.4Z" style="fill:#fbb901;fill-rule:nonzero;"/><path d="M102.8,104.9l0,12.4l-57.9,0l0,-51.7l-2,-2.2l-4,-0l0,70.9c0,5.6 4.6,10.2 10.2,10.2l49.6,0c5.6,0 10.2,-4.6 10.2,-10.2l-0,-32.9l-2.9,0l-3.2,3.5Zm0,29.4c0,2.3 -1.9,4.2 -4.2,4.2l-49.6,0c-2.3,0 -4.2,-1.9 -4.2,-4.2l0,-13l57.9,0l0,13l0.1,0Z" style="fill-rule:nonzero;"/></g></svg>