<?xml version="1.0" encoding="UTF-8" standalone="no"?><!DOCTYPE svg PUBLIC "-//W3C//DTD SVG 1.1//EN" "http://www.w3.org/Graphics/SVG/1.1/DTD/svg11.dtd"><svg width="100%" height="100%" viewBox="0 0 100 100" version="1.1" xmlns="http://www.w3.org/2000/svg" xmlns:xlink="http://www.w3.org/1999/xlink" xml:space="preserve" xmlns:serif="http://www.serif.com/" style="fill-rule:evenodd;clip-rule:evenodd;stroke-linejoin:round;stroke-miterlimit:2;"><path d="M13.966,76.028c1.195,1.626 2.994,2.708 4.991,3.002c0.379,0.058 0.762,0.086 1.146,0.087c1.624,-0 3.205,-0.524 4.508,-1.493l1.394,-1.03l19.85,18.596l11.415,-8.436l-14.605,-19.763l37.295,-13.979c1.64,-0.615 2.734,-2.192 2.734,-3.944c-0,-0.901 -0.29,-1.779 -0.826,-2.504l-25.21,-34.117c-0.781,-1.066 -2.023,-1.7 -3.344,-1.708l-0.046,-0c-1.306,-0.005 -2.541,0.603 -3.335,1.64l-29.16,37.835l-10.618,7.848c-3.354,2.484 -4.075,7.286 -1.598,10.645l5.409,7.321Zm30.068,-2.109l3.1,4.195l-4.631,3.422l1.793,2.425l4.63,-3.422l4.125,5.583l-6.968,5.148l-17.611,-16.499l6.757,-4.992l4.499,-1.687l2.514,3.401l-4.63,3.422l1.792,2.425l4.63,-3.421Zm8.288,-59.698c0.225,-0.295 0.576,-0.467 0.947,-0.466l0.013,-0c0.376,0.002 0.729,0.182 0.951,0.485l25.21,34.117c0.152,0.206 0.234,0.455 0.234,0.711c0,0.497 -0.31,0.945 -0.776,1.119l-43.863,16.442l-11.311,-15.307l28.595,-37.101Zm-42.188,49.28c0.178,-1.206 0.831,-2.292 1.813,-3.013l9.574,-7.076l10.872,14.712l-9.575,7.075c-2.028,1.497 -4.928,1.062 -6.427,-0.964l-5.409,-7.321c-0.727,-0.979 -1.032,-2.208 -0.848,-3.413l-0,-0Z" style="fill-rule:nonzero;"/><path d="M87.761,13.962l-15.162,11.204l1.793,2.426l15.162,-11.204l-1.793,-2.426Z" style="fill:#fbb901;"/><path d="M69.326,6.189l-4.188,10.194l2.791,1.146l4.187,-10.193l-2.79,-1.147Z" style="fill:#fbb901;"/><path d="M91.294,33.289l-10.973,1.011l0.277,3.004l10.973,-1.012l-0.277,-3.003Z" style="fill:#fbb901;"/><path d="M24.044,61.06l-9.223,6.815l1.792,2.426l9.224,-6.816l-1.793,-2.425Z" style="fill:#fbb901;"/><path d="M20.712,56.549l-9.223,6.818l1.793,2.426l9.223,-6.819l-1.793,-2.425Z" style="fill:#fbb901;"/><path d="M27.377,65.569l-9.224,6.816l1.793,2.425l9.223,-6.816l-1.792,-2.425Z" style="fill:#fbb901;"/></svg>