<?xml version="1.0" encoding="UTF-8" standalone="no"?><!DOCTYPE svg PUBLIC "-//W3C//DTD SVG 1.1//EN" "http://www.w3.org/Graphics/SVG/1.1/DTD/svg11.dtd"><svg width="100%" height="100%" viewBox="0 0 512 512" version="1.1" xmlns="http://www.w3.org/2000/svg" xmlns:xlink="http://www.w3.org/1999/xlink" xml:space="preserve" xmlns:serif="http://www.serif.com/" style="fill-rule:evenodd;clip-rule:evenodd;stroke-linejoin:round;stroke-miterlimit:2;"><g><rect x="57.806" y="355.097" width="66.065" height="33.032" style="fill:#fbb901;fill-rule:nonzero;"/><rect x="57.806" y="470.71" width="66.065" height="33.032" style="fill:#fbb901;fill-rule:nonzero;"/><rect x="222.968" y="470.71" width="66.065" height="33.032" style="fill:#fbb901;fill-rule:nonzero;"/><rect x="222.968" y="355.097" width="66.065" height="33.032" style="fill:#fbb901;fill-rule:nonzero;"/><rect x="140.387" y="206.452" width="66.065" height="33.032" style="fill:#fbb901;fill-rule:nonzero;"/><rect x="140.387" y="322.065" width="66.065" height="33.032" style="fill:#fbb901;fill-rule:nonzero;"/><path d="M20.52,129.411c18.202,7.287 37.378,10.976 56.981,10.976l51.325,0l-0,-16.516l-51.326,-0c-17.418,0.016 -34.678,-3.309 -50.843,-9.794c-6.162,-2.46 -10.141,-8.339 -10.141,-14.98c0,-6.642 3.979,-12.52 10.149,-14.98c16.163,-6.485 33.42,-9.81 50.835,-9.794l219.79,-0l0,5.705c-19.282,27.5 -50.622,43.843 -84.323,43.843l-23.032,-0l0,16.516l23.033,0c40.06,0 77.238,-19.903 99.451,-53.222l1.387,-2.08l0,-27.279l-16.516,0l0,-57.806l-38.475,0l-24.774,57.806l-39.001,0l24.774,-49.548l-40.64,0l-74.322,49.548l-27.353,0c-19.601,0 -38.778,3.69 -56.981,10.976c-12.457,4.988 -20.518,16.888 -20.518,30.315c0,13.426 8.061,25.326 20.52,30.314Zm249.181,-112.895l11.073,0l0,41.29l-28.77,0l17.697,-41.29Zm-85.519,8.258l8.907,0l-16.516,33.032l-41.941,0l49.55,-33.032Z" style="fill-rule:nonzero;"/><path d="M322.065,346.839l-59.327,-0c0.928,-2.593 1.52,-5.352 1.52,-8.258l0,-115.613c0,-13.657 -11.117,-24.774 -24.774,-24.774l-132.129,-0c-13.657,-0 -24.774,11.117 -24.774,24.774l-0,115.613c-0,2.906 0.592,5.665 1.52,8.258l-59.327,-0c-13.657,-0 -24.774,11.117 -24.774,24.774l0,115.613c0,13.657 11.117,24.774 24.774,24.774l132.129,0c6.367,0 12.121,-2.484 16.516,-6.439c4.396,3.964 10.15,6.439 16.516,6.439l132.13,0c13.656,0 24.774,-11.117 24.774,-24.774l-0,-115.613c-0,-13.657 -11.118,-24.774 -24.774,-24.774Zm-222.968,-8.258l-0,-115.613c-0,-4.548 3.71,-8.258 8.258,-8.258l132.129,-0c4.548,-0 8.258,3.71 8.258,8.258l-0,115.613c-0,4.548 -3.71,8.258 -8.258,8.258l-132.129,-0c-4.548,-0 -8.258,-3.71 -8.258,-8.258Zm57.806,156.903l-132.129,-0c-4.548,-0 -8.258,-3.71 -8.258,-8.258l0,-115.613c0,-4.548 3.71,-8.258 8.258,-8.258l132.129,-0c4.548,-0 8.258,3.71 8.258,8.258l0,115.613c0,4.548 -3.71,8.258 -8.258,8.258Zm173.42,-8.258c-0,4.548 -3.71,8.258 -8.258,8.258l-132.13,-0c-4.548,-0 -8.258,-3.71 -8.258,-8.258l0,-115.613c0,-4.548 3.71,-8.258 8.258,-8.258l132.13,-0c4.548,-0 8.258,3.71 8.258,8.258l-0,115.613Z" style="fill-rule:nonzero;"/><path d="M480.726,183.924l-33.678,-8.416c19.351,-9.702 31.92,-29.645 31.92,-51.637l-0,-14.443c-0,-32.073 -25.138,-58.928 -56.042,-59.856c-15.728,-0.56 -30.709,5.311 -42.023,16.295c-11.313,10.985 -17.548,25.714 -17.548,41.488l-0,16.516c-0,21.992 12.569,41.935 31.919,51.637l-33.677,8.416c-18.331,4.565 -31.293,21.169 -31.274,40.059l-0,81.565c-0,13.657 11.117,24.775 24.774,24.775l8.258,-0l-0,181.677l115.613,0l-0,-181.677l8.258,-0c13.657,-0 24.774,-11.118 24.774,-24.775l0,-81.565c0.019,-18.89 -12.944,-35.494 -31.274,-40.059Zm-100.855,-60.053l-0,-16.516c-0,-11.262 4.452,-21.786 12.537,-29.629c8.084,-7.847 18.636,-11.936 30.031,-11.638c22.062,0.662 40.013,20.109 40.013,43.34l-0,14.443c-0,17.423 -11.065,33.049 -27.533,38.879l-5.5,1.957l0,16.97c0,4.549 -3.71,8.258 -8.258,8.258c-4.548,0 -8.258,-3.709 -8.258,-8.258l0,-16.971l-5.5,-1.948c-16.467,-5.838 -27.532,-21.464 -27.532,-38.887Zm82.581,371.613l-33.033,-0l0,-173.419l-16.516,-0l0,173.419l-33.032,-0l-0,-189.936l82.581,0l-0,189.936Zm33.032,-189.936c-0,4.549 -3.71,8.258 -8.258,8.258l-8.258,0l-0,-82.58l-16.516,-0l-0,57.806l-82.581,0l-0,-57.806l-16.516,-0l-0,82.58l-8.258,0c-4.548,0 -8.258,-3.709 -8.258,-8.258l-0,-81.565c-0,-11.385 7.721,-21.273 18.762,-24.04l32.952,-8.233c3.862,8.665 12.523,14.742 22.608,14.742c10.085,-0 18.746,-6.077 22.609,-14.742l32.952,8.233c10.997,2.745 18.772,12.707 18.762,24.042l-0,81.563Z" style="fill-rule:nonzero;"/><path d="M218.98,181.677l-40.053,0l-71.572,-53.677l-0,-20.645l79.766,-0l31.859,74.322Z" style="fill:#fbb901;fill-rule:nonzero;"/></g></svg>