<?xml version="1.0" encoding="UTF-8" standalone="no"?><!DOCTYPE svg PUBLIC "-//W3C//DTD SVG 1.1//EN" "http://www.w3.org/Graphics/SVG/1.1/DTD/svg11.dtd"><svg width="100%" height="100%" viewBox="0 0 512 512" version="1.1" xmlns="http://www.w3.org/2000/svg" xmlns:xlink="http://www.w3.org/1999/xlink" xml:space="preserve" xmlns:serif="http://www.serif.com/" style="fill-rule:evenodd;clip-rule:evenodd;stroke-linejoin:round;stroke-miterlimit:2;"><g><path d="M401.141,130.703l-18.925,25.996l-18.924,-25.996c-2.808,-3.847 -7.799,-5.303 -12.166,-3.535c-0.728,0.312 -16.845,6.863 -32.026,17.053c-15.285,-10.19 -31.298,-16.741 -32.026,-17.053c-4.367,-1.768 -9.358,-0.312 -12.166,3.535l-18.924,25.996l-18.925,-25.996c-2.807,-3.847 -7.798,-5.303 -12.165,-3.535c-0.728,0.312 -16.845,6.863 -32.026,17.053c-15.285,-10.19 -31.402,-16.741 -32.026,-17.053c-4.367,-1.768 -9.359,-0.312 -12.166,3.535l-18.924,25.996l-18.925,-25.996c-2.807,-3.847 -7.798,-5.303 -12.166,-3.535c-0.831,0.312 -20.588,8.319 -37.017,20.484c-4.679,3.432 -6.862,5.615 -10.71,9.463c-14.349,14.349 -6.342,73.514 -2.703,87.135c4.991,18.301 18.3,42.84 20.38,46.583c2.392,5.615 3.951,11.542 4.575,17.573l18.717,184.046c1.143,11.126 10.398,19.548 21.628,19.548l32.442,0c11.229,0 20.484,-8.422 21.627,-19.548l18.717,-184.046c0.624,-6.031 2.184,-11.958 4.575,-17.573c0.312,-0.623 1.04,-1.871 1.976,-3.639c0.936,1.768 1.663,3.016 1.975,3.639c2.392,5.615 3.952,11.542 4.575,17.573l18.717,184.046c1.144,11.126 10.398,19.548 21.628,19.548l32.442,0c11.23,0 20.484,-8.422 21.628,-19.548l18.716,-184.046c0.624,-6.031 2.184,-11.958 4.575,-17.573c0.312,-0.623 1.04,-1.975 1.976,-3.639c0.936,1.768 1.664,3.016 1.976,3.639c2.391,5.615 3.951,11.542 4.575,17.573l18.716,184.046c1.144,11.126 10.398,19.548 21.628,19.548l32.442,0c11.23,0 20.484,-8.422 21.628,-19.548l18.717,-184.046c0.623,-6.031 2.183,-11.958 4.575,-17.573c2.079,-3.743 15.389,-28.282 20.38,-46.583c3.743,-13.621 11.646,-72.89 -2.704,-87.135c-3.847,-3.848 -6.03,-6.031 -10.71,-9.463c-16.532,-12.165 -36.185,-20.172 -37.017,-20.484c-4.367,-1.664 -9.358,-0.312 -12.165,3.535Zm-228.653,150.668c-0.104,0.312 -0.312,0.52 -0.416,0.832c-3.432,7.695 -5.511,15.805 -6.343,24.228l-18.717,184.045c-0.104,0.624 -0.52,1.04 -1.143,1.04l-32.442,-0c-0.624,-0 -1.144,-0.416 -1.144,-1.04l-18.717,-184.045c-0.832,-8.319 -3.015,-16.533 -6.342,-24.228c-0.104,-0.312 -0.312,-0.624 -0.416,-0.832c-0.104,-0.208 -14.142,-25.371 -18.717,-42.424c-5.095,-18.82 -6.551,-60.101 -2.391,-67.483c3.327,-3.328 4.783,-4.679 8.11,-7.175c8.63,-6.343 18.717,-11.542 25.267,-14.765l22.356,30.778c1.976,2.704 4.991,4.263 8.319,4.263c3.327,0 6.342,-1.559 8.318,-4.263l22.356,-30.778c4.263,2.08 10.086,4.991 15.909,8.526c-13.206,15.701 -5.511,72.891 -1.872,86.304c1.664,6.135 4.263,12.998 7.071,19.549c-4.679,9.67 -8.942,17.364 -9.046,17.468Zm145.156,-42.424c-4.575,16.949 -18.612,42.112 -18.716,42.424c-0.104,0.312 -0.312,0.52 -0.416,0.832c-3.431,7.695 -5.511,15.805 -6.343,24.228l-18.716,184.045c-0.104,0.624 -0.52,1.04 -1.144,1.04l-32.442,-0c-0.624,-0 -1.144,-0.416 -1.144,-1.04l-18.716,-184.045c-0.832,-8.319 -3.016,-16.533 -6.343,-24.228c-0.104,-0.312 -0.312,-0.624 -0.416,-0.832c-0.104,-0.208 -14.141,-25.371 -18.717,-42.424c-5.095,-18.82 -6.55,-60.101 -2.391,-67.483c3.327,-3.328 4.783,-4.679 8.11,-7.175c8.631,-6.343 18.717,-11.542 25.268,-14.765l22.355,30.778c1.976,2.704 4.991,4.263 8.319,4.263c3.327,0 6.343,-1.559 8.318,-4.263l22.356,-30.778c6.551,3.119 16.533,8.318 25.267,14.765c3.328,2.496 4.783,3.847 8.111,7.175c3.951,7.382 2.495,48.663 -2.6,67.483Zm128.624,-67.483c4.159,7.382 2.808,48.663 -2.391,67.483c-4.575,16.949 -18.613,42.112 -18.717,42.424c-0.104,0.312 -0.312,0.52 -0.416,0.832c-3.431,7.695 -5.511,15.805 -6.343,24.228l-18.716,184.045c-0.104,0.624 -0.52,1.04 -1.144,1.04l-32.442,-0c-0.624,-0 -1.144,-0.416 -1.144,-1.04l-18.716,-184.045c-0.832,-8.319 -3.015,-16.533 -6.343,-24.228c-0.104,-0.312 -0.312,-0.624 -0.416,-0.832c0,-0.104 -4.263,-7.694 -8.942,-17.468c2.807,-6.551 5.407,-13.414 7.071,-19.549c3.639,-13.309 11.333,-70.499 -1.872,-86.304c5.927,-3.535 11.646,-6.446 15.909,-8.526l22.356,30.778c1.975,2.704 4.991,4.263 8.318,4.263c3.328,0 6.343,-1.559 8.319,-4.263l22.355,-30.778c6.551,3.119 16.533,8.318 25.268,14.765c3.327,2.496 4.679,3.847 8.006,7.175Z" style="fill-rule:nonzero;"/><path d="M349.566,100.653c7.799,8.838 18.717,13.622 31.714,13.934l1.872,-0c12.998,-0.312 23.916,-5.096 31.818,-13.934c16.637,-18.716 14.245,-49.911 13.829,-53.862c-1.663,-34.417 -25.683,-46.687 -45.647,-46.687l-1.872,-0c-19.964,-0 -43.983,12.27 -45.647,46.687c-0.312,3.848 -2.704,35.146 13.933,53.862Zm6.655,-51.99l0,-0.624c1.144,-23.812 16.221,-27.347 25.059,-27.347l1.872,0c8.942,0 24.02,3.535 25.059,27.347l0,0.624c0.728,7.071 0.624,27.867 -8.838,38.369c-4.055,4.575 -9.67,6.862 -17.053,6.966l-0.312,0c-7.382,-0.104 -12.997,-2.391 -17.157,-6.966c-9.254,-10.606 -9.358,-31.298 -8.63,-38.369Z" style="fill:#fbb901;fill-rule:nonzero;"/><path d="M128.608,114.483l1.871,-0c12.894,-0.312 23.812,-5.096 31.714,-13.934c16.637,-18.716 14.246,-49.91 13.83,-53.862c-1.664,-34.417 -25.683,-46.687 -45.648,-46.687l-1.871,-0c-19.964,-0 -43.984,12.27 -45.648,46.687c-0.416,3.848 -2.807,35.146 13.83,53.862c8.006,8.942 19.028,13.726 31.922,13.934Zm-25.06,-65.82l0,-0.624c1.04,-23.812 16.221,-27.347 25.06,-27.347l1.871,0c8.943,0 24.02,3.535 25.06,27.347l-0,0.624c-0,0.208 2.391,25.683 -8.735,38.265c-4.055,4.575 -9.67,6.862 -17.156,6.966l-0.312,0c-7.383,-0.104 -12.998,-2.391 -17.053,-6.966c-9.358,-10.502 -9.566,-31.194 -8.735,-38.265Z" style="fill:#fbb901;fill-rule:nonzero;"/><path d="M254.84,114.483l1.872,-0c12.997,-0.312 23.915,-5.096 31.818,-13.934c16.637,-18.716 14.245,-49.91 13.829,-53.862c-1.664,-34.417 -25.683,-46.687 -45.647,-46.687l-1.872,-0c-19.964,-0 -43.984,12.27 -45.647,46.687c-0.416,3.848 -2.808,35.146 13.829,53.862c8.007,8.838 18.925,13.726 31.818,13.934Zm-24.955,-65.82l-0,-0.624c1.144,-23.812 16.221,-27.347 25.059,-27.347l1.872,0c8.942,0 24.019,3.535 25.059,27.347l0,0.624c0,0.208 2.392,25.683 -8.734,38.265c-4.056,4.575 -9.671,6.862 -17.157,6.966l-0.312,0c-7.383,-0.104 -12.998,-2.391 -17.157,-6.966c-9.254,-10.502 -9.358,-31.194 -8.63,-38.265Z" style="fill:#fbb901;fill-rule:nonzero;"/></g></svg>