<?xml version="1.0" encoding="UTF-8" standalone="no"?><!DOCTYPE svg PUBLIC "-//W3C//DTD SVG 1.1//EN" "http://www.w3.org/Graphics/SVG/1.1/DTD/svg11.dtd"><svg width="100%" height="100%" viewBox="0 0 512 512" version="1.1" xmlns="http://www.w3.org/2000/svg" xmlns:xlink="http://www.w3.org/1999/xlink" xml:space="preserve" xmlns:serif="http://www.serif.com/" style="fill-rule:evenodd;clip-rule:evenodd;stroke-linejoin:round;stroke-miterlimit:2;"><g><rect x="363.355" y="396.387" width="66.065" height="41.29" style="fill:#fbb901;fill-rule:nonzero;"/><rect x="363.355" y="173.419" width="66.065" height="41.29" style="fill:#fbb901;fill-rule:nonzero;"/><rect x="363.355" y="264.258" width="66.065" height="82.581" style="fill:#fbb901;fill-rule:nonzero;"/><rect x="33.032" y="363.355" width="49.548" height="49.548" style="fill:#fbb901;fill-rule:nonzero;"/><rect x="74.323" y="462.452" width="165.161" height="16.516" style="fill-rule:nonzero;"/><path d="M492.173,433.311c2.048,-3.61 3.311,-7.714 3.311,-12.15l-0,-99.096c-0,-6.367 -2.484,-12.121 -6.439,-16.517c3.964,-4.395 6.439,-10.149 6.439,-16.516l-0,-247.742l-16.516,0l-0,57.807l-49.549,-0l0,-57.807l-16.516,0l0,57.807l-49.548,-0l-0,-57.807l-16.516,0l-0,57.807l-49.549,-0l0,-57.807l-16.516,0l0,57.807l-49.548,-0l-0,-57.807l-16.516,0l-0,57.807l-49.549,-0l0,-57.807l-16.516,0l0,57.807l-49.548,-0l-0,-57.807l-16.516,0l-0,57.807l-49.549,-0l0,-57.807l-16.516,0l0,156.904c0,9.108 7.408,16.516 16.516,16.516l4.375,-0l-26.657,119.996c-6.48,4.467 -10.75,11.937 -10.75,20.391l0,66.064c0,13.657 11.117,24.774 24.774,24.774l247.742,0l0,-8.258l8.258,0l0,-272.516l16.516,0l0,256c0,13.657 11.118,24.774 24.775,24.774l156.903,0c4.556,0 8.258,3.702 8.258,8.259c-0,4.556 -3.702,8.258 -8.258,8.258l-173.42,-0l0,16.516l173.42,-0c13.657,-0 24.774,-11.118 24.774,-24.774c-0,-8.795 -4.641,-16.493 -11.569,-20.883Zm-13.205,-144.279c-0,4.557 -3.702,8.258 -8.258,8.258l-148.645,0c-4.557,0 -8.259,-3.701 -8.259,-8.258l0,-99.097c0,-4.548 3.702,-8.258 8.259,-8.258l148.645,0c4.556,0 8.258,3.71 8.258,8.258l-0,99.097Zm-0,-173.419l-0,51.069c-2.593,-0.928 -5.351,-1.521 -8.258,-1.521l-41.291,0l0,-49.548l49.549,-0Zm-66.065,-0l0,49.548l-49.548,0l-0,-49.548l49.548,-0Zm-66.064,-0l-0,49.548l-24.774,0c-2.907,0 -5.666,0.593 -8.259,1.521l0,-18.037l-16.516,0l0,-33.032l49.549,-0Zm-132.129,-0l-0,49.548l-49.549,0l0,-49.548l49.549,-0Zm-31.214,99.097l45.42,181.677l-1.44,0l-54.641,-84.992l21.898,-15.641l-9.595,-13.436l-57.807,41.291l9.596,13.436l22.452,-16.036l48.468,75.378l-85.787,0l-11.829,-47.31c-2.752,-11.033 -12.646,-18.754 -24.034,-18.754l-22.685,-0l25.69,-115.613l94.294,-0Zm62.427,181.677l-45.419,-181.677l17.742,-0l45.746,181.677l-18.069,0Zm-97.278,-280.774l0,49.548l-49.548,0l-0,-49.548l49.548,-0Zm-66.064,-0l-0,49.548l-49.549,0l0,-49.548l49.549,-0Zm-49.549,82.581l0,-16.517l198.194,0l-0,16.517l-198.194,-0Zm39.25,16.516l-25.689,115.613l-17.935,-0l25.68,-115.613l17.944,-0Zm-55.766,206.451l0,-66.064c0,-4.557 3.702,-8.258 8.258,-8.258l61.424,-0c3.777,0 7.097,2.587 8.02,6.25l14.946,59.814l155.094,0l0,16.516l-239.484,0c-4.556,0 -8.258,-3.701 -8.258,-8.258Zm247.742,-272.516l0,181.134l-29.11,-115.59c7.211,-1.774 12.594,-8.249 12.594,-15.995l-0,-16.517c-0,-9.108 -7.408,-16.516 -16.516,-16.516l-0,-49.548l49.548,-0l0,33.032l-16.516,0Zm57.807,280.774c-4.557,0 -8.259,-3.701 -8.259,-8.258l0,-99.096c0,-4.557 3.702,-8.259 8.259,-8.259l148.645,0c4.556,0 8.258,3.702 8.258,8.259l-0,99.096c-0,4.557 -3.702,8.258 -8.258,8.258l-148.645,0Z" style="fill-rule:nonzero;"/><path d="M495.484,49.548l-478.968,0c-9.109,0 -16.516,-7.407 -16.516,-16.516l-0,-16.516c-0,-9.109 7.407,-16.516 16.516,-16.516l478.968,0c9.109,0 16.516,7.407 16.516,16.516l0,16.516c0,9.109 -7.407,16.516 -16.516,16.516Z" style="fill:#fbb901;fill-rule:nonzero;"/><path d="M41.29,512c-22.766,0 -41.29,-18.524 -41.29,-41.29c0,-22.767 18.524,-41.291 41.29,-41.291c22.767,0 41.291,18.524 41.291,41.291c-0,22.766 -18.524,41.29 -41.291,41.29Z" style="fill:#fbb901;fill-rule:nonzero;"/><path d="M49.548,470.71c0,4.53 -3.727,8.258 -8.258,8.258c-4.53,-0 -8.258,-3.728 -8.258,-8.258c0,-4.531 3.728,-8.258 8.258,-8.258c4.531,-0 8.258,3.727 8.258,8.258Z" style="fill-rule:nonzero;"/><path d="M272.516,512c-22.766,0 -41.29,-18.524 -41.29,-41.29c-0,-22.767 18.524,-41.291 41.29,-41.291c22.767,0 41.29,18.524 41.29,41.291c0,22.766 -18.523,41.29 -41.29,41.29Z" style="fill:#fbb901;fill-rule:nonzero;"/><path d="M280.774,470.71c0,4.53 -3.728,8.258 -8.258,8.258c-4.53,-0 -8.258,-3.728 -8.258,-8.258c0,-4.531 3.728,-8.258 8.258,-8.258c4.53,-0 8.258,3.727 8.258,8.258Z" style="fill-rule:nonzero;"/></g></svg>