<?xml version="1.0" encoding="UTF-8" standalone="no"?><!DOCTYPE svg PUBLIC "-//W3C//DTD SVG 1.1//EN" "http://www.w3.org/Graphics/SVG/1.1/DTD/svg11.dtd"><svg width="100%" height="100%" viewBox="0 0 512 512" version="1.1" xmlns="http://www.w3.org/2000/svg" xmlns:xlink="http://www.w3.org/1999/xlink" xml:space="preserve" xmlns:serif="http://www.serif.com/" style="fill-rule:evenodd;clip-rule:evenodd;stroke-linejoin:round;stroke-miterlimit:2;"><g><rect x="107.355" y="49.548" width="33.032" height="16.516" style="fill-rule:nonzero;"/><rect x="173.419" y="49.548" width="66.065" height="16.516" style="fill-rule:nonzero;"/><rect x="272.516" y="49.548" width="33.032" height="16.516" style="fill-rule:nonzero;"/><path d="M470.71,289.032l-8.258,0c-0,-13.657 -11.118,-24.774 -24.775,-24.774c-6.367,0 -12.12,2.484 -16.516,6.439c-2.401,-2.167 -5.208,-3.839 -8.258,-4.918l0,-191.456c0,-13.657 -11.117,-24.775 -24.774,-24.775l-49.548,0l-0,16.517l49.548,-0c4.548,-0 8.258,3.709 8.258,8.258l0,41.29l-379.871,-0l0,-41.29c0,-4.549 3.71,-8.258 8.258,-8.258l49.549,-0l-0,-16.517l-49.549,0c-13.657,0 -24.774,11.118 -24.774,24.775l-0,297.29c-0,13.657 11.117,24.774 24.774,24.774l256,0l0,6.517c-0.004,8.15 2.41,16.12 6.936,22.898l9.58,14.367l0,14.025l16.516,-0l0,-19.021l-12.355,-18.528c-2.717,-4.067 -4.166,-8.851 -4.161,-13.742l0,-31.29l85.803,-0c-2.033,6.5 -3.222,13.339 -3.222,20.415l-0,20.875l16.516,0l0,-20.875c0,-19.053 10.331,-36.174 26.988,-45.189l6.044,-0l0,-57.807c0,-4.548 3.71,-8.258 8.258,-8.258c4.549,0 8.258,3.71 8.258,8.258l0,91.303c-0.002,3.846 -0.898,7.64 -2.616,11.081l-9.54,19.084c-2.858,5.733 -4.35,12.05 -4.36,18.455l0,25.239l16.516,-0l0,-25.239c0,-3.822 0.9,-7.652 2.617,-11.08l9.54,-19.085c2.858,-5.732 4.35,-12.049 4.36,-18.455l-0,-8.722l8.258,-0c22.766,-0 41.29,-18.524 41.29,-41.29c0,-22.767 -18.524,-41.291 -41.29,-41.291Zm-66.065,41.291c-4.548,-0 -8.258,-3.71 -8.258,-8.258l0,-33.033c0,-4.548 3.71,-8.258 8.258,-8.258c4.548,0 8.258,3.71 8.258,8.258l0,41.291l-8.258,-0Zm-123.871,49.548l-256,-0c-4.548,-0 -8.258,-3.71 -8.258,-8.258l0,-239.484l379.871,0l0,133.65c-3.048,1.082 -5.854,2.753 -8.258,4.918c-2.402,-2.167 -5.208,-3.839 -8.258,-4.918l-0,-117.134l-346.839,0l0,143.807l70.904,70.903l137.173,-0l12.387,8.258l27.278,-0l0,8.258Zm49.549,-90.839c-0,-4.548 3.71,-8.258 8.258,-8.258c4.548,0 8.258,3.71 8.258,8.258l-0,33.033c-0,4.548 -3.71,8.258 -8.258,8.258c-4.548,-0 -8.258,-3.71 -8.258,-8.258l-0,-33.033Zm8.258,-24.774c-6.367,0 -12.121,2.484 -16.516,6.439c-4.396,-3.964 -10.15,-6.439 -16.517,-6.439c-13.656,0 -24.774,11.117 -24.774,24.774l-27.278,0l-61.936,41.291l24.774,16.516l-100.721,-0l-0,-66.065l-66.065,0l0,-115.613l313.807,0l-0,100.618c-3.048,1.082 -5.855,2.753 -8.258,4.918c-4.396,-3.955 -10.149,-6.439 -16.516,-6.439Zm-24.775,57.807c0,4.548 -3.709,8.258 -8.258,8.258c-4.548,-0 -8.258,-3.71 -8.258,-8.258l0,-33.033c0,-4.548 3.71,-8.258 8.258,-8.258c4.549,0 8.258,3.71 8.258,8.258l0,33.033Zm-92.463,8.258l26.399,-17.606l-0,35.202l-26.399,-17.596Zm42.915,-24.775l16.516,0l0,16.517l-16.516,-0l0,-16.517Zm-165.161,29.614l-37.872,-37.872l37.872,0l-0,37.872Zm264.258,-46.13c-0,-4.548 3.71,-8.258 8.258,-8.258c4.548,0 8.258,3.71 8.258,8.258l-0,33.033c-0,4.548 -3.71,8.258 -8.258,8.258c-4.548,-0 -8.258,-3.71 -8.258,-8.258l-0,-33.033Zm27.5,66.065l-126.597,-0l0,-16.516l22.955,-0c4.537,5.028 11.046,8.258 18.335,8.258c6.367,-0 12.121,-2.484 16.517,-6.44c4.395,3.964 10.149,6.44 16.516,6.44c6.367,-0 12.12,-2.484 16.516,-6.44c4.395,3.964 10.149,6.44 16.516,6.44c6.367,-0 12.121,-2.484 16.516,-6.44c2.835,2.551 6.222,4.41 9.895,5.431c-2.677,2.876 -5.04,5.988 -7.169,9.267Zm79.855,-0l-8.258,-0l-0,-49.549l8.258,0c13.656,0 24.774,11.118 24.774,24.775c-0,13.656 -11.118,24.774 -24.774,24.774Z" style="fill-rule:nonzero;"/><rect x="330.323" y="181.677" width="16.516" height="16.516" style="fill-rule:nonzero;"/><rect x="297.29" y="181.677" width="16.516" height="16.516" style="fill-rule:nonzero;"/><rect x="264.258" y="181.677" width="16.516" height="16.516" style="fill-rule:nonzero;"/><rect x="66.065" y="181.677" width="16.516" height="16.516" style="fill-rule:nonzero;"/><rect x="99.097" y="181.677" width="16.516" height="16.516" style="fill-rule:nonzero;"/><rect x="132.129" y="181.677" width="16.516" height="16.516" style="fill-rule:nonzero;"/><path d="M99.097,99.097l-16.516,-0c-9.109,-0 -16.516,-7.408 -16.516,-16.516l-0,-66.065c-0,-9.109 7.407,-16.516 16.516,-16.516l16.516,-0c9.108,-0 16.516,7.407 16.516,16.516l-0,66.065c-0,9.108 -7.408,16.516 -16.516,16.516Z" style="fill:#fbb901;fill-rule:nonzero;"/><path d="M165.161,99.097l-16.516,-0c-9.108,-0 -16.516,-7.408 -16.516,-16.516l0,-66.065c0,-9.109 7.408,-16.516 16.516,-16.516l16.516,-0c9.109,-0 16.516,7.407 16.516,16.516l0,66.065c0,9.108 -7.407,16.516 -16.516,16.516Z" style="fill:#fbb901;fill-rule:nonzero;"/><path d="M264.258,99.097l-16.516,-0c-9.109,-0 -16.516,-7.408 -16.516,-16.516l-0,-66.065c-0,-9.109 7.407,-16.516 16.516,-16.516l16.516,-0c9.109,-0 16.516,7.407 16.516,16.516l0,66.065c0,9.108 -7.407,16.516 -16.516,16.516Z" style="fill:#fbb901;fill-rule:nonzero;"/><path d="M330.323,99.097l-16.517,-0c-9.108,-0 -16.516,-7.408 -16.516,-16.516l0,-66.065c0,-9.109 7.408,-16.516 16.516,-16.516l16.517,-0c9.108,-0 16.516,7.407 16.516,16.516l-0,66.065c-0,9.108 -7.408,16.516 -16.516,16.516Z" style="fill:#fbb901;fill-rule:nonzero;"/><rect x="280.774" y="445.935" width="181.677" height="66.065" style="fill:#fbb901;fill-rule:nonzero;"/></g></svg>