<?xml version="1.0" encoding="UTF-8" standalone="no"?><!DOCTYPE svg PUBLIC "-//W3C//DTD SVG 1.1//EN" "http://www.w3.org/Graphics/SVG/1.1/DTD/svg11.dtd"><svg width="100%" height="100%" viewBox="0 0 512 512" version="1.1" xmlns="http://www.w3.org/2000/svg" xmlns:xlink="http://www.w3.org/1999/xlink" xml:space="preserve" xmlns:serif="http://www.serif.com/" style="fill-rule:evenodd;clip-rule:evenodd;stroke-linejoin:round;stroke-miterlimit:2;"><g><path d="M497.973,197.108c3.249,-6.287 3.773,-13.413 1.572,-20.119c-2.2,-6.707 -6.811,-12.156 -13.098,-15.299l-56.587,-28.713c-1.571,-0.838 -2.724,-2.305 -2.934,-4.086l-9.85,-62.664c-1.991,-12.889 -12.994,-22.216 -25.988,-22.216c-1.362,0 -2.829,0.105 -4.191,0.315l-62.664,9.955c-1.781,0.314 -3.563,-0.315 -4.82,-1.572l-44.745,-44.955c-4.925,-5.029 -11.632,-7.754 -18.653,-7.754c-7.021,0 -13.622,2.725 -18.652,7.754l-44.85,44.85c-1.048,1.048 -2.515,1.677 -3.982,1.677c-0.314,-0 -0.629,-0 -0.838,-0.105l-62.664,-9.955c-1.363,-0.21 -2.83,-0.314 -4.192,-0.314c-12.994,-0 -23.997,9.326 -25.988,22.215l-9.85,62.664c-0.314,1.781 -1.362,3.248 -2.934,4.087l-56.586,28.712c-6.287,3.144 -10.898,8.593 -13.099,15.299c-2.2,6.707 -1.572,13.832 1.572,20.12l28.817,56.481c0.838,1.572 0.838,3.458 0,5.03l-28.817,56.481c-3.248,6.288 -3.772,13.413 -1.572,20.12c2.201,6.706 6.812,12.155 13.099,15.299l56.586,28.712c1.572,0.839 2.725,2.306 2.934,4.087l9.85,62.664c1.991,12.889 12.994,22.215 25.988,22.215c1.362,0 2.829,-0.104 4.192,-0.314l62.664,-9.955c1.781,-0.314 3.562,0.314 4.82,1.572l44.85,44.85c4.925,5.029 11.631,7.754 18.652,7.754c7.021,-0 13.623,-2.725 18.653,-7.754l44.849,-44.85c1.258,-1.258 3.039,-1.886 4.821,-1.572l62.664,9.955c1.362,0.21 2.829,0.314 4.191,0.314c12.994,0 23.997,-9.326 25.988,-22.215l9.85,-62.664c0.315,-1.781 1.362,-3.248 2.934,-4.087l56.586,-28.712c6.288,-3.144 10.898,-8.593 13.099,-15.299c2.201,-6.707 1.572,-13.832 -1.572,-20.12l-28.817,-56.481c-0.837,-1.57 -0.837,-3.46 0,-5.03l28.712,-56.377Zm-47.364,70.943l28.817,56.481c0.628,1.362 0.838,2.829 0.314,4.296c-0.419,1.468 -1.467,2.62 -2.829,3.249l-56.586,28.712c-7.545,3.773 -12.785,11.108 -14.042,19.386l-9.85,62.664c-0.419,2.934 -3.354,5.135 -6.392,4.611l-62.664,-9.955c-1.363,-0.21 -2.725,-0.314 -4.192,-0.314c-7.021,-0 -13.623,2.724 -18.652,7.754l-44.536,44.85c-2.096,2.095 -5.763,2.095 -7.859,-0l-44.85,-44.85c-4.925,-4.925 -11.736,-7.754 -18.652,-7.754c-1.363,-0 -2.83,0.104 -4.192,0.314l-62.664,9.955c-3.039,0.524 -5.973,-1.677 -6.392,-4.611l-9.85,-62.664c-1.258,-8.278 -6.602,-15.613 -14.042,-19.386l-56.586,-28.712c-1.362,-0.629 -2.305,-1.781 -2.829,-3.249c-0.419,-1.467 -0.315,-2.934 0.314,-4.296l28.817,-56.481c3.877,-7.545 3.877,-16.452 0,-23.997l-28.817,-56.481c-0.629,-1.363 -0.838,-2.83 -0.314,-4.297c0.419,-1.467 1.467,-2.619 2.829,-3.248l56.586,-28.712c7.545,-3.773 12.784,-11.108 14.042,-19.386l9.85,-62.664c0.419,-2.934 3.353,-5.135 6.392,-4.611l62.664,9.955c1.362,0.209 2.725,0.314 4.192,0.314c7.021,0 13.622,-2.724 18.652,-7.754l44.745,-44.745c2.096,-2.096 5.764,-2.096 7.859,-0l44.85,44.85c4.925,5.03 11.632,7.754 18.653,7.754c1.362,0 2.829,-0.105 4.191,-0.314l62.664,-9.955c3.039,-0.524 5.868,1.676 6.392,4.61l9.85,62.664c1.258,8.279 6.602,15.614 14.042,19.386l56.586,28.713c1.363,0.628 2.306,1.781 2.83,3.248c0.524,1.467 0.314,2.934 -0.315,4.296l-28.817,56.482c-3.982,7.44 -3.982,16.452 -0.209,23.892Z" style="fill-rule:nonzero;"/><path d="M337.96,193.546l-46.212,-0l0,-32.066c0,-16.976 -5.134,-29.341 -15.299,-36.781c-15.614,-11.527 -36.047,-5.554 -38.353,-4.82c-4.296,1.362 -7.23,5.344 -7.23,9.85l-0,40.973c-0,28.817 -34.371,38.981 -35.733,39.4c-0.734,0.21 -1.467,0.524 -2.096,0.839c-3.458,-2.515 -7.65,-4.087 -12.26,-4.087l-29.656,-0c-11.317,-0 -20.434,9.221 -20.434,20.434l0,102.379c0,11.317 9.222,20.434 20.434,20.434l29.656,-0c5.029,-0 9.64,-1.887 13.308,-4.925c6.497,5.344 14.67,8.592 23.682,8.592l100.388,0c24.311,0 40.554,-13.413 43.383,-35.838l13.518,-85.717c0.105,-0.524 0.105,-1.048 0.105,-1.572c-0,-20.434 -16.662,-37.095 -37.201,-37.095Zm-157.393,136.016l-29.131,0l-0,-101.855l29.131,-0l-0,101.855Zm160.537,-14.461l0,0.314c-0.629,4.821 -2.201,17.815 -22.844,17.815l-100.388,-0c-9.117,-0 -16.557,-7.44 -16.557,-16.557l0,-86.661c5.868,-1.781 50.299,-16.556 50.299,-59.206l0,-32.275c4.192,-0.209 9.117,0.315 12.575,2.934c4.506,3.354 6.706,10.06 6.706,20.015l0,42.44c0,5.763 4.611,10.374 10.374,10.374l56.587,-0c8.907,-0 16.137,7.021 16.451,15.823l-13.203,84.984Z" style="fill:#fbb901;fill-rule:nonzero;"/></g></svg>