<?xml version="1.0" encoding="UTF-8" standalone="no"?><!DOCTYPE svg PUBLIC "-//W3C//DTD SVG 1.1//EN" "http://www.w3.org/Graphics/SVG/1.1/DTD/svg11.dtd"><svg width="100%" height="100%" viewBox="0 0 512 512" version="1.1" xmlns="http://www.w3.org/2000/svg" xmlns:xlink="http://www.w3.org/1999/xlink" xml:space="preserve" xmlns:serif="http://www.serif.com/" style="fill-rule:evenodd;clip-rule:evenodd;stroke-linejoin:round;stroke-miterlimit:2;"><g><path d="M347.078,491.319l-80.738,0l0,-23.5c0,-5.745 -4.595,-10.34 -10.34,-10.34c-5.745,-0 -10.34,4.595 -10.34,10.34l-0,23.5l-80.738,0c-5.745,0 -10.34,4.596 -10.34,10.341c-0,5.744 4.595,10.34 10.34,10.34l182.26,-0c5.745,-0 10.341,-4.596 10.341,-10.34c-0.105,-5.745 -4.7,-10.341 -10.445,-10.341Z" style="fill-rule:nonzero;"/><path d="M240.228,289.423c-25.902,6.058 -45.956,27.47 -50.03,54.104l-41.361,-0c4.283,-15.667 18.592,-27.157 35.512,-27.157c5.745,0 10.341,-4.595 10.341,-10.34c-0,-5.744 -4.596,-10.34 -10.341,-10.34c-28.409,-0 -52.119,20.68 -56.715,47.837l-81.573,-0c-1.044,-0.314 -1.984,-0.523 -3.133,-0.523c-5.745,0 -10.34,4.596 -10.34,10.341l-0,56.401c-0,13.056 10.653,23.71 23.709,23.71l399.406,-0c13.056,-0 23.709,-10.654 23.709,-23.71l0,-274.905c0,-13.056 -10.653,-23.709 -23.709,-23.709l-111.758,-0c-5.745,-0 -10.341,4.595 -10.341,10.34c0,5.745 4.596,10.34 10.341,10.34l111.758,0c1.671,0 3.029,1.358 3.029,3.029l-0,275.01c-0,1.671 -1.358,3.029 -3.029,3.029l-399.406,-0c-1.671,-0 -3.029,-1.358 -3.029,-3.029l0,-45.539l373.085,-0c5.745,-0 10.341,-4.596 10.341,-10.341c-0,-5.744 -4.596,-10.34 -10.341,-10.34l-44.181,0c-4.596,-27.156 -28.305,-47.837 -56.715,-47.837c-5.744,0 -10.34,4.596 -10.34,10.341c0,5.744 4.596,10.34 10.34,10.34c17.025,-0 31.23,11.489 35.512,27.156l-41.152,0c-4.387,-29.663 -28.827,-52.85 -58.908,-55.566c-12.429,-0.731 -20.681,1.358 -20.681,1.358Zm14.832,19.009c21.412,0 39.272,15.041 43.763,35.095l-87.526,-0c4.386,-20.054 22.351,-35.095 43.763,-35.095Z" style="fill-rule:nonzero;"/><path d="M178.814,121.472c-0,-5.745 -4.596,-10.34 -10.341,-10.34l-112.176,-0c-13.056,-0 -23.709,10.653 -23.709,23.709l-0,180.381c-0,5.744 4.595,10.34 10.34,10.34c5.744,-0 10.34,-4.596 10.34,-10.34l0,-180.381c0,-1.671 1.358,-3.029 3.029,-3.029l112.176,0c5.745,0 10.341,-4.595 10.341,-10.34Z" style="fill-rule:nonzero;"/><path d="M294.437,278.874c5.744,-0 10.34,-4.596 10.34,-10.34l-0,-19.95l22.769,0c5.745,0 10.341,-4.595 10.341,-10.34l-0,-20.576c-0,-6.998 -1.985,-13.892 -5.745,-19.845l-15.98,-25.172c-1.567,-2.402 -2.298,-5.222 -2.298,-8.042l-0,-82.618c-0,-12.534 -4.491,-24.65 -12.743,-34.154l-38.227,-44.286c-1.985,-2.298 -4.805,-3.551 -7.834,-3.551c-3.029,-0 -5.849,1.358 -7.834,3.656l-37.809,44.285c-8.043,9.505 -12.534,21.516 -12.534,33.946l-0,82.095c-0,3.133 -0.94,6.058 -2.716,8.565l-17.025,24.545c-4.386,6.267 -6.684,13.578 -6.684,21.203l-0,19.949c-0,5.745 4.595,10.34 10.34,10.34l18.801,0.105l-0,19.949c-0,5.745 4.595,10.34 10.34,10.34c5.744,0 10.34,-4.595 10.34,-10.34l0,-19.949l0.105,-0.105c5.744,0 10.34,-4.595 10.34,-10.34c-0,-5.745 -4.596,-10.34 -10.34,-10.34l-29.246,-0l0,-9.609c0,-3.343 1.045,-6.581 2.925,-9.401l17.025,-24.545c4.178,-6.058 6.371,-13.056 6.371,-20.471l-0,-81.991c-0,-7.521 2.716,-14.832 7.52,-20.472l30.29,-35.199l30.29,35.094c4.909,5.745 7.624,13.056 7.624,20.577l0,82.617c0,6.789 1.88,13.37 5.536,19.114l15.98,25.172c1.671,2.611 2.507,5.64 2.507,8.773l0,10.236l-27.783,0c-5.745,0 -10.34,4.596 -10.34,10.341c-0,3.76 1.984,6.997 5.013,8.773l0,21.621c0,5.744 4.7,10.34 10.341,10.34Z" style="fill:#fbb900;fill-rule:nonzero;"/><path d="M243.675,245.555l0,44.599c0,5.536 4.178,10.445 9.714,10.758c5.953,0.314 10.967,-4.387 10.967,-10.34l-0,-45.017c-0,-5.744 -4.596,-10.34 -10.34,-10.34c-5.745,0 -10.341,4.596 -10.341,10.34Z" style="fill-rule:nonzero;"/></g></svg>